<?xml version="1.0" encoding="UTF-8"?>
<!DOCTYPE svg PUBLIC "-//W3C//DTD SVG 1.1//EN" "http://www.w3.org/Graphics/SVG/1.1/DTD/svg11.dtd">
<!-- Creator: CorelDRAW 2021.5 -->
<svg xmlns="http://www.w3.org/2000/svg" xml:space="preserve" width="45.8206mm" height="15.3896mm" version="1.1" style="shape-rendering:geometricPrecision; text-rendering:geometricPrecision; image-rendering:optimizeQuality; fill-rule:evenodd; clip-rule:evenodd"
viewBox="0 0 508.48 170.78"
 xmlns:xlink="http://www.w3.org/1999/xlink"
 xmlns:xodm="http://www.corel.com/coreldraw/odm/2003">
 <defs>
  <style type="text/css">
   <![CDATA[
    .fil2 {fill:white;fill-rule:nonzero}
    .fil1 {fill:url(#id0)}
    .fil0 {fill:url(#id1)}
   ]]>
  </style>
  <linearGradient id="id0" gradientUnits="userSpaceOnUse" x1="73.48" y1="16.32" x2="65.32" y2="46.18">
   <stop offset="0" style="stop-opacity:1; stop-color:#999999"/>
   <stop offset="1" style="stop-opacity:1; stop-color:white"/>
  </linearGradient>
  <linearGradient id="id1" gradientUnits="userSpaceOnUse" x1="31.62" y1="14" x2="35.6" y2="-1.7">
   <stop offset="0" style="stop-opacity:1; stop-color:#E6E6E6"/>
   <stop offset="1" style="stop-opacity:1; stop-color:white"/>
  </linearGradient>
 </defs>
 <g id="Layer_x0020_1">
  <metadata id="CorelCorpID_0Corel-Layer"/>
  <g id="_2203861412656">
   <path class="fil0" d="M20.56 0l-0.04 0 -0.06 0c-0.31,0 -0.65,0 -1.02,0.01l0 0c-2.16,0.05 -3.03,0.19 -4.41,0.7l0 0c-1.54,0.57 -1.44,0.48 -8.27,7.29l0 0c-3.55,3.54 -6.53,6.58 -6.61,6.76l0 0c-0.34,0.71 -0.09,1.35 0.78,1.97l0 0c0.26,0.19 6.42,3.07 13.69,6.4l0 0c7.27,3.33 14.41,6.61 15.87,7.28l0 0c1.45,0.67 2.97,1.33 3.37,1.47l0 0c1.09,0.37 2.17,0.3 3.05,-0.18l0 0c0.52,-0.29 3.18,-2.78 12.94,-12.13l0 0c6.76,-6.47 12.54,-11.95 12.85,-12.16l0 0c0.6,-0.43 1.75,-0.91 2.21,-0.92l0 0 0.28 -0.01 -0.31 -0.1c-0.26,-0.08 -38.51,-5.76 -42.27,-6.28l0 0c-0.56,-0.08 -1.19,-0.12 -2.05,-0.12l0 0 -0 0 -0 0z"/>
   <path class="fil1" d="M63.52 7.15c-1.01,0.49 0.09,-0.53 -15.22,14.14l0 0c-12.32,11.8 -11.38,11.02 -13.2,10.92l0 0c-0.61,-0.03 -1.2,-0.12 -1.48,-0.23l0 0c-0.46,-0.19 -6.54,-2.96 -7.08,-3.23l0 0 -0.49 -0.25 0 34.51 0 107.77 22.69 0 22.49 0 0 -116.21c0,-30.75 0.01,-43.11 -0.07,-43.5l0 0c-0.28,-1.33 -1.23,-2.72 -2.38,-3.51l0 0c-0.96,-0.65 -1.95,-0.98 -2.95,-0.98 -0.77,0 -1.54,0.19 -2.31,0.57l0 0 0 0 0 0 0 0z"/>
  </g>
  <g id="_2203861410208">
   <path class="fil2" d="M212.49 147.67l-24.94 0 0 -7.76c-7.22,4.73 -15.86,7.48 -25.13,7.48 -12.68,0 -24.17,-5.14 -32.48,-13.45 -8.31,-8.31 -13.45,-19.79 -13.45,-32.48 0,-12.68 5.14,-24.17 13.45,-32.48 8.31,-8.31 19.79,-13.45 32.48,-13.45 9.28,0 17.91,2.75 25.13,7.48l0 -30.69 24.94 -9.36 0 124.71 0 -0zm-34.96 -61.33c-3.87,-3.87 -9.21,-6.26 -15.12,-6.26 -5.91,0 -11.25,2.39 -15.12,6.26 -3.87,3.87 -6.26,9.21 -6.26,15.12 0,5.91 2.39,11.25 6.26,15.12 3.87,3.87 9.21,6.26 15.12,6.26 5.9,0 11.25,-2.39 15.12,-6.26 3.87,-3.87 6.26,-9.21 6.26,-15.12 0,-5.9 -2.39,-11.25 -6.26,-15.12l0 0 -0 0z"/>
   <path class="fil2" d="M243.64 147.67l-24.95 0 0 -84.25 24.95 -6.84 0 91.09 0 0zm-12.47 -118.82c6.89,0 12.47,5.58 12.47,12.47 0,6.89 -5.58,12.47 -12.47,12.47 -6.89,0 -12.47,-5.58 -12.47,-12.47 0,-6.89 5.58,-12.47 12.47,-12.47z"/>
   <path class="fil2" d="M274.97 147.45l-24.94 0 0 -84.01 24.94 -6.83 0 3.92c6.35,-3.32 13.58,-5.2 21.24,-5.2 12.68,0 24.17,5.14 32.48,13.45 0.4,0.4 0.79,0.81 1.18,1.22 0.39,-0.42 0.78,-0.82 1.18,-1.22 8.31,-8.31 19.8,-13.45 32.48,-13.45 12.68,0 24.16,5.14 32.48,13.45 7.67,7.67 12.65,18.06 13.36,29.59l0.09 0 0 2.53c0,0.12 0,0.24 0,0.36l-0 0 0 46.45 -24.55 0 0 -46.76c-0.08,-5.78 -2.46,-11.01 -6.26,-14.81 -3.87,-3.87 -9.21,-6.26 -15.12,-6.26 -5.91,0 -11.25,2.39 -15.12,6.26 -3.8,3.8 -6.18,9.03 -6.26,14.82l0 46.75 -24.55 0 0 -46.45 -0 0c0,-5.9 -2.39,-11.25 -6.26,-15.12 -3.87,-3.87 -9.21,-6.26 -15.12,-6.26 -5.9,0 -11.25,2.39 -15.12,6.26 -3.32,3.32 -5.55,7.73 -6.12,12.65l0 48.65 -0 0.01z"/>
   <path class="fil2" d="M481.72 92.06c-1.06,-2.16 -2.47,-4.12 -4.15,-5.81 -3.93,-3.93 -9.36,-6.36 -15.35,-6.36 -6,0 -11.42,2.43 -15.35,6.36 -1.68,1.68 -3.09,3.65 -4.15,5.81l39.01 0 -0 0zm-38.92 19.26c1.05,2.09 2.43,3.99 4.07,5.64 3.93,3.93 9.36,6.36 15.35,6.36 3.3,0 6.39,-0.71 9.12,-1.97 2.87,-1.33 5.4,-3.26 7.41,-5.63l18.7 15.83c-4.32,5.09 -9.73,9.23 -15.85,12.06 -5.93,2.74 -12.5,4.27 -19.39,4.27 -12.77,0 -24.34,-5.18 -32.71,-13.55 -8.37,-8.37 -13.55,-19.94 -13.55,-32.71 0,-12.77 5.18,-24.34 13.55,-32.71 8.37,-8.37 19.94,-13.55 32.71,-13.55 12.77,0 24.34,5.18 32.71,13.55 8.37,8.37 13.55,19.94 13.55,32.71 0,1.44 -0.1,3.07 -0.29,4.86 -0.18,1.69 -0.42,3.29 -0.74,4.78l0 0.08 -13.02 0 -51.64 0 0 0 0.01 0z"/>
  </g>
 </g>
</svg>
