<?xml version="1.0" encoding="UTF-8"?>
<!DOCTYPE svg PUBLIC "-//W3C//DTD SVG 1.1//EN" "http://www.w3.org/Graphics/SVG/1.1/DTD/svg11.dtd">
<!-- Creator: CorelDRAW 2021.5 -->
<svg xmlns="http://www.w3.org/2000/svg" xml:space="preserve" width="349.336mm" height="85.9366mm" version="1.1" style="shape-rendering:geometricPrecision; text-rendering:geometricPrecision; image-rendering:optimizeQuality; fill-rule:evenodd; clip-rule:evenodd"
viewBox="0 0 47694.07 11732.74"
 xmlns:xlink="http://www.w3.org/1999/xlink"
 xmlns:xodm="http://www.corel.com/coreldraw/odm/2003">
 <defs>
  <style type="text/css">
   <![CDATA[
    .fil0 {fill:black}
    .fil2 {fill:#151414}
    .fil3 {fill:#444547}
    .fil9 {fill:#535459}
    .fil5 {fill:#6B6D6F}
    .fil6 {fill:#7C7E81}
    .fil7 {fill:#96989C}
    .fil8 {fill:#B7B7B9}
    .fil4 {fill:#D2D3D5}
    .fil1 {fill:#E5E6E6}
   ]]>
  </style>
 </defs>
 <g id="Layer_x0020_1">
  <metadata id="CorelCorpID_0Corel-Layer"/>
  <g id="_2623490598336">
   <path class="fil0" d="M15434.91 5068.09c-11.36,92.61 -23.73,45.68 -37.9,147.29l51.88 30.96c-59.8,286.24 -15.09,111.3 -37.93,405.41 -7.13,91.71 -21.03,337.7 22.91,394.33 30.77,70.84 21.97,210.7 13.57,297.37 -70.39,60.85 -58.42,30.08 -112.49,120.98 -23.03,38.72 -41.95,90.89 -78,136.54 -106.34,134.64 -623.75,471.83 -828.57,515.65 -34.42,48.04 5.38,5.62 -41.2,40.56 -82,61.52 -128.1,31.31 -223.07,116.16 -9.39,268.97 528.01,281.68 766.55,344.15l-4.72 420.07c-111.54,78.83 -412.03,128.75 -449.79,125.24 -60.03,-5.56 -52.54,-17.23 -72.46,-24.6 -104.8,-38.81 -353.07,-10.59 -578.81,-25.01l-85.45 -5.42 -3.9 262.56 180.3 16.44c236.64,-35.39 222.53,6.08 557.29,96.51 66.46,17.95 248.18,53.18 327.03,155.79 63.62,82.82 36.06,309.14 13.31,398.96 -121.82,129.74 -534.81,147.71 -743.82,168.56 -4,7.03 -13.3,6.66 -16.79,17.54l-34.1 29.84c-70.84,47.73 -53.87,-9.97 -68.33,27.85 123.98,201.32 141.67,-28.15 407.37,205.27 113.78,99.97 42.53,72.61 212.72,92.62 111.84,13.15 165.64,49.64 167.67,180.48 -132.09,107.46 -865.2,301.55 -1116.65,343.35l-28.79 7.78c100.72,53.25 -8.75,34.39 97.85,47.35 45.89,5.58 138.23,0.45 188.2,-0.37 150.89,-2.46 150.45,-6.98 260.04,47.2 16.26,8.04 52.74,24.92 66.9,31.24 9.79,153.46 -31.55,324.09 -126.14,429 -70.69,78.42 17.22,37.7 -124.87,72.89 -154.95,38.41 -559.6,82.97 -682.43,16.38 -33.27,-105.28 -20.42,-295.99 -9.04,-405.39 -322.75,-246.28 -249.04,-30.51 -418.18,-181.51 -93.86,-83.77 -75.76,-74.07 -86.78,-152.35 52.63,-66.48 85.56,-110.63 155.52,-84.09 -156.56,-56.78 -462.6,-323.87 -537.18,-464.51 -42.66,73.02 -56.89,47.69 -166.93,47.69 -39.88,81.6 -31.67,64.07 -88.81,122.12 -81.52,82.83 -293.77,300.72 -388.24,307.24 48.21,32.07 48.77,33.82 116.9,47.81 -30.39,201.88 -31.74,45.68 -134.04,260.11 -61.38,128.68 -204.93,200.67 -360.35,216.25l-552 24.59c-296.8,5.58 -1246.83,35.21 -1478.94,-13.43 -19.48,-50.19 -0.51,-112.01 -35.63,-190.85 -60.21,-15.89 -89,-1.68 -135.71,-30.6l-70.71 -94.83c-59.73,-97.14 -64.85,-176.72 -127.84,-208.42 -107.78,-25.24 -298.27,9.61 -438.57,-17.22 -56.88,-102.03 18.9,-89.13 -107.39,-149.62 -48.18,-23.07 -143.55,-42.08 -189.66,-93.49 -55.06,-25.89 -193.42,-68.25 -237.8,-106.4 -119.64,-35.84 -714.46,-230.4 -749.11,-335.46l627.28 -294.01c50.13,-23.92 58.42,-29.19 123.33,-39.51 86.34,-57.12 70.89,-42.01 96.25,-139.31 15.86,-60.89 46.88,-160.52 5.54,-228.82l-47.81 133.14c-22.57,52.49 -37.86,100.7 -76.91,160.23l-462.2 -10.87 26.79 -136.05c-55.16,29.52 -63.36,50.46 -135.89,59.89 16.7,-90.49 42.99,-113.77 55.33,-195.33 -211.69,96.88 -99.26,85.38 -497.63,-123.16 -24.12,-12.64 -59.87,-29.01 -78.65,-44.99 -39.54,-33.59 -30.79,-17.05 -48.18,-71.24 63.72,-44.81 175.48,-84.84 257.94,-118.59l30.5 -169.75c-111.57,47.88 4.83,32.92 -120.27,81.75 -28.83,-20.17 -205.52,-232.94 -199.33,-351.6 255.33,-53.81 223.35,-73.94 474.83,-193.28 192.61,-91.39 392.2,-125.88 320.68,-278.82 -109.63,168.56 -152.75,138.55 -381.55,125.63 -26.94,-37.53 -56.22,-38.26 -12.33,-106.22l-108.16 19.28 42.45 -145.88c-47.68,37.6 -41.94,42.86 -112.73,66.75 -116.72,-69.7 -347.33,-169.44 -379.33,-240.88 75.32,-66.35 124.29,-51.57 196.08,-119.23 -28.63,-77.52 -4.61,-16.07 -44.02,-45.38 -70.75,-52.63 -226.9,-261.61 -249.56,-336.17l28.6 -70c-72.1,-46.23 -159.25,-201.92 -229.22,-301.84 -76.92,-109.84 -134.02,-213.86 -204.9,-319.73 23.99,-102.98 67.81,-91.51 39.09,-227.32l-62.94 -249.61c-61.42,22.24 -71.09,50.73 -89.6,173.02 -82.45,544.71 119.12,75.31 -180.33,582.47l-469.33 675.33c-16.71,-46.16 -65.38,-118.94 -85.97,-25.35 -4.25,19.33 14.43,125.25 14.43,192.29l142.58 72.5c-40.45,54.93 -223.65,156.17 -309.51,213.67 -41.56,-78.56 -23.16,-93.58 -119.23,-119.24 -33.86,73.21 -2.38,60.41 0,166.93 -6.03,-2.18 -13.78,-15.4 -16.33,-10.21 -32.3,65.83 -26.6,-15.81 -31.65,-17.38 -0.98,-0.3 14.1,-62.98 -50.68,1.8 -34.76,34.76 -20.59,79.02 -20.59,145.03 -160.84,0 -157.35,26.51 -246.08,-64 -106.08,-108.23 -242.08,-217.97 -141.72,19.74l23.48 50.46c46.58,88.07 121.06,114.74 268.92,166.58 79.79,-0.71 237.34,75.92 303.58,119.95 216.59,143.94 -44.97,54.27 308.2,96.07 -5.82,76.18 -125.22,235.51 -182.52,318.04l-104.87 -76.21 -1.52 194.62c40.99,9.61 181.02,72.51 227.5,104.77 -15.61,56.67 -6.46,36.62 -48.22,74.07 -0.16,0.15 -56.71,35.07 -57.79,35.69 -115.12,66.23 -275.61,178.41 -380.46,209.41l-28.82 -56.84c-16.1,-74.94 -17.16,-133.66 -130.45,-143.09 2.32,103.97 23.85,149.27 23.85,286.16 -73.7,-53.98 -32.11,-60.88 -119.24,-119.23 -36.22,75.5 -23.85,108.62 -23.85,214.62l-286.16 0c-21.52,-80.62 -157.84,-216.94 -238.47,-238.46l0 105.86c87.65,44.99 44.71,77.49 95.16,156.46 39.5,61.81 88.59,64.78 161.91,100.21 55.74,26.94 114.57,53.61 162.52,77.78 80.73,40.7 83.92,54.61 120.44,119.98 2.08,3.74 5.13,11.74 8.45,17.2l143.05 -2.44 0.08 211.89c-44.59,15.48 -74.07,16.72 -109.36,30.96l-295.58 135.78c-79.31,40.4 -338.93,157.59 -429.75,170.26 -128.7,3.55 -235.29,44.69 -238.47,187.63l-166.93 0 -136.75 -435.59c-61.27,-168.97 -163.01,-208.29 -364.04,-208.29 0,-178.43 159.53,-889.47 -348.86,-755.5 -109.77,28.93 -136.6,42.46 -198.47,112.8 -194.85,221.46 -7.52,287.86 -16.04,551.39 -3.1,95.47 6.61,39.59 14.88,139.01 -500.22,0 -221.16,22.35 -405.41,71.54 0,70.41 3.11,146.52 1.35,215.96 -3.45,135.53 -10.98,80.93 -37.07,177.88 -41.74,155.15 -3.7,207.52 -35.81,345.42l-166.93 0c-12.53,150.64 -125.48,119.23 -286.16,119.23 -29.34,55.44 -79.92,132.81 -95.39,190.78 -225.35,0 -262.32,-39.07 -262.32,190.77l-281.49 76.21c-80.85,21.78 -182.93,51.14 -275.91,81.79 -135.65,44.73 -446.72,104.32 -611.1,104.32l0 858.49 47694.07 0 0 -286.16c-126.14,-2.81 -114.68,-26.86 -141.81,-120.51l-124.02 -400.6c-32.1,-62.78 -66.11,-103.13 -139.56,-122.75 0,-327.28 48.3,-466.12 -79.96,-563.91 -72.06,-54.95 -100.05,-93.64 -207.49,-102.52 -141.03,-11.66 -181.06,0.31 -213.34,-120.53 156.82,0 147.11,5.45 214.62,-95.39 -131.86,-88.29 -121.55,-45.46 -307.04,-193.75 -100.87,-80.63 -170.44,-141.32 -254.17,-246.61 -241.93,-304.16 -402.33,194.87 -607.29,249.59 -64.85,-47.51 -255.59,-491.61 -262.31,-572.32 66.3,-31.81 46.17,-23.85 143.08,-23.85l0 -119.24c-278.39,-133.58 -324.27,20.52 -461.66,-325.29l-86.83 -199.34c72.52,-98.97 62.26,4.9 95.39,-119.22 -66.76,-91.13 -95.47,-59.16 -194.03,-93.77 -22.73,-7.99 -77.59,6.49 -50.41,-121.5 29.23,-137.69 53.34,-62.39 172.9,-142.45 -8.78,-105.47 -34.19,-99.02 -108.85,-153.47 -158.33,-115.45 -149.54,-235.24 -320.39,-490.39l-498.09 17.28c-3.13,0.3 -11.17,2.54 -13.57,2.89 -59.17,8.55 -60.17,32.44 -77.36,58.52l-122.04 307.2c-101.51,222.88 -238.25,100.47 -242.83,305.66 84.1,19.61 78.35,23.85 190.78,23.85 32.73,140.45 11.09,57.56 0,190.77 -68.29,15.92 -157.89,44.33 -214.62,71.55 4.87,218.58 109.8,-23.29 -54.04,446.73 -48.75,139.86 -171.52,116.87 -301.59,151.5 -91.46,24.37 -35.2,22.64 -121.32,45.63 9.95,119.48 46.61,92.03 143.09,143.08 -6.09,73.11 -22.61,114.64 -47.7,166.93 -57.29,-20.74 -18.02,0.16 -54.31,-41.08 -230.06,-261.33 -64.92,-650.45 -64.92,-650.49 0,-124.91 -75.28,45.25 -47.7,-286.16 72.66,-1.61 86.94,-10.77 143.08,-23.85 -14.16,-170.21 -132.34,-64.99 -211.92,-217.32l-121.93 -331.16c-170.56,14.2 49.5,49.79 -357.62,47.78 -143.05,-0.71 -286.27,-0.08 -429.33,-0.08 -51.58,77.02 -45.25,44.26 -89.56,148.92 -27.88,65.85 -46.92,105.62 -53.53,184.94 -113.89,9.48 -183.25,23.84 -333.85,23.84 -14.61,62.72 -21.69,70.08 -47.69,119.23l-333.87 0c0,-214.42 -96.03,-119.34 -399.04,-340.2 -49.81,-36.29 -197.32,-127.08 -225.82,-155.74 -106.86,-107.47 29.22,-118.23 -162.1,-219.47 65.19,-97.34 47.7,-57.12 47.7,-214.62 99.68,-8.29 110.93,-19.55 119.23,-119.23 -84.58,-44.77 -37.74,-43.8 -119.23,-23.97 -166.17,-28.23 -115.82,-84.4 -132.94,-252.08l-658.69 -10.68c-96.88,258.64 25.39,150.51 -221.02,298.94 57.31,57.55 72.15,52.96 123.58,94.35 199.32,160.45 -231.43,157.76 -231.74,157.8 -83.83,134.06 -36.94,255.54 -71.54,403.36 -41.33,78.3 -456.67,270.19 -524.29,310 125.14,39.61 148.05,60.26 101.41,238.47 -11.35,15.14 -241.55,111.13 -308.99,-10.38 -96.81,-174.41 -45.01,-479.77 -113.28,-553.16 -87.35,-100.85 -318.61,-0.94 -444.82,-56.48 -25.39,-94.48 -14.61,-290.04 14.57,-371.18 65.68,-26.62 83.09,-36.7 137.18,-79.36l65.22 -74.22c-136.46,-32.12 -150.44,9.84 -265.57,-66.39 -83.9,-55.54 -127.19,-95.05 -193.32,-142.66 -278.82,-200.65 -183.97,-331.87 -304.32,-356.77 -43.14,126.21 -13.69,148.79 -92.51,234.57l-341.43 279.17c-117.07,69.29 -143.5,13.8 -246.38,60.47 -0.57,99.06 16.75,69.81 130.19,128.62 89.28,46.31 0.87,-15.58 33.57,22.42 41.63,52.15 33.46,70.49 37.53,102.3l-3.4 309.47c-93.37,19.39 -139.03,0.23 -225.82,13.04 -231.36,34.15 -389.65,46.01 -662.39,19l-9.08 -343.31c-99.8,1.45 -151.55,5.23 -246.12,-32.86l-70.75 -36.17c14.35,-139.3 19.24,-37.46 129.4,-143.08 -22.75,-78.15 -3.43,-31.74 -51.12,-104.98 -88.81,-14.24 -17.26,44.28 -165.8,26.13 -113.96,-176.6 -43.18,-387.77 -77.02,-612.94 -344.96,-74.33 -510.61,137.54 -457.2,-251.36 69.23,-47.99 83.05,-27.37 130.71,-82.27 -170.39,-211.78 -203.02,-19.81 -314.52,-181.12 -95.13,-18.1 -211.78,-126.56 -277.41,-187.4 -119.07,-110.4 -45.16,-189.17 -177.51,-301.23 -72.7,36.29 -90.12,117.93 -147.41,188.24 -288.05,353.58 -559.45,356.26 -615.62,386.11 47.18,155.64 200.67,142.04 108.65,401.15l-391.89 13.61 -25.99 66.09c-121.35,619.84 -110.55,604.78 -399.37,557.81 -66.38,-10.79 -38.73,-17.63 -76.09,10.61 54.65,59.68 52.13,44.44 134.53,74.24 120.81,43.69 96.01,11.24 106.05,126.45 -128.85,89.82 -251.95,-30.36 -280.82,299.53 -12.25,139.93 -9.31,142.64 -48.82,269.36 -82.01,262.91 -24.56,172.87 -167.62,426.99 -286.09,48.11 -304.5,-18.51 -436.66,-32.51 36.4,110.37 130.74,134.97 254.69,128.13 76.41,72.56 97.55,374.73 88.58,474.26 -9.56,105.95 -25.37,123.97 -103.71,166.25 -44.52,24.04 -5.75,-1.93 -30.94,14.05l-64.09 76.89c-20.59,31.25 15.02,9.54 -36.19,51.05l148.34 73.9c91.53,459.57 -310.86,216.56 -354.7,209.22 -128.27,-21.52 -96.07,20.55 -314.05,-78.79l-137.42 -58.57c-231.22,-118.34 -137.67,-137.24 -452.66,-171.15 -57.97,73.67 -166.3,136.23 -261.59,178.84l-137.16 52.95c-55.91,21.91 -30.19,11.15 -63.58,27.78 -216.9,108.1 -130.97,6.94 -273.07,82.05l-215.92 73.71c-4.01,1.26 -11.15,3.48 -14.84,4.6l-39.44 10.87c61.25,107.39 10.09,46.01 144.27,30.8 159.82,-18.1 273.34,-32.7 305.36,66.82 55.73,173.21 -155.82,109.66 -230.99,127.82 -76.84,40.44 34.41,-56.35 -27.1,28.07 -27.24,37.37 -2.29,1.35 -30.58,46.94 -199.03,320.62 -573.8,252.49 -657.85,319.57 84.2,1.84 95.32,22.58 190.32,24.64l286.63 23.17c36.62,94.41 36.85,238.12 -2.33,333.63 -94.86,22.91 -99.99,6.77 -188.26,15.03 -168.16,15.74 -36.29,84.22 -167.74,130.15l-763.18 21.38c-165.65,-1.42 -226.87,-5.94 -291.88,95.87 179.02,11.59 157.29,63.77 166.97,92.09 15.92,46.64 49.7,259.35 -87.65,303.53 -33.05,10.64 -35.62,10.16 -70.22,13 -41.5,3.41 -145.62,-3.34 -193.23,-3.34l-25.71 -118.92c-186.33,-0.31 -394.24,43.46 -451.36,-105.03l-524.65 0.34c-133.36,129.69 -137.72,104.38 -381.53,104.38 -77.04,182.58 -239.97,115.83 -596.03,119.71 -32.66,0.35 -90.49,2.81 -120.6,0.42l-94.79 -17.48c-6.79,-1.67 -15.66,-4.16 -23.13,-7.26l-22.39 -94.04c-4.21,-40.17 -0.12,-71.98 2.84,-111.13 -115.57,4.26 -114.66,25.78 -242.88,-5.83 -72.92,69.63 7.51,112.34 -261.33,115.13 -133.76,1.39 -262.07,3.24 -395.37,-7.56 3.04,67.61 18.04,134.44 -12.15,181.13 -41.85,64.74 -88.06,34.41 -116.4,-0.78 -53.82,-62.48 -19.69,-398.27 -49.48,-548.9 -46.28,-234.12 -13.79,-378.3 -28.55,-600.08 -14.76,-221.97 -152.04,-1012.12 -42.91,-1178.79l728.95 -37.94c16.71,-80.5 24.56,-60.54 -13.42,-143.61 -184.16,-12.12 -646.45,39.21 -771.26,-47.57 -49.08,-95.36 -31.66,-300.54 -5.08,-394.21 150.85,-29.76 353.77,-16.81 514.11,-17.83 374.2,-2.4 220.64,15.93 315.98,-224.75 129.05,-44.9 161.8,26.54 168.35,-126.32 -39.65,-22.64 3.11,-13.88 -52.48,-15.5 -26.49,-0.78 -26.34,-0.07 -54.91,6.72 -84.25,20 -40.97,26.7 -138.48,39.44 -82.14,10.73 -190.81,-12.46 -258.45,28.79 -36.02,37.39 3.99,12.18 -55.48,39.39 -65.19,29.82 -1921.9,25.18 -1999.42,25.68 -295.45,1.88 -1641.27,93.29 -1911.76,14.39l-102.14 -55.53c-12.66,-4.19 -122.18,-7.17 -178.28,-11.51 -41.89,-3.25 -70.71,-7.3 -102.57,-19.36 -70.31,-26.64 -28.83,-7 -66,-39.1l-71.77 9.12 -158.56 -13.63c-65.82,136.31 53.05,135.27 163,182.28l66.94 206.99 559.71 12.23 -12.1 391.4 -509.36 11.91c-16.11,62.19 -7.73,125.93 33.57,182.73l491.45 -9.64c43.54,-8.31 107.23,-20.48 153.74,-0.2 138.67,60.47 59.21,232.83 46.21,496.65 -11.1,225.63 -36.36,456.67 -45.12,686.83 -8.21,215.52 27.89,651.87 -30.04,850.55 -20.37,69.87 7.25,87.94 -114.03,100.5 -192.63,19.93 -114.37,-103.45 -263.74,-147.63 -116.31,0.63 -170.05,17.93 -262.32,-28.07 -108.8,-136.88 -21.95,-179.52 -71.42,-274.68 -109.41,0 -129.56,8.08 -214.62,-23.85 -12.42,-27.48 -90.63,-267.7 -47.93,-278.26 -95.24,50.75 -42.9,-70.2 -58.09,134.48 -4.56,61.4 -4.75,94.5 -23.06,134.17 -98.42,13.42 -125.07,-9.5 -130.22,-109 -7.24,-139.86 84.39,-124.08 -36.3,-169.01 7,308.23 -45.75,295.08 -324.54,330.26 -33.74,145.77 -5.32,192.01 -213,197.86 -147.6,4.15 -304.29,6.76 -449.53,-15.25 -28.82,-64.15 -71.09,-98.11 -100.57,-153.7l-620.03 0c-25,-65.23 -16.19,28.82 -23.84,-98.5 -259.35,10.89 -357.47,25.28 -429.26,-116.7l-620.01 0.97c-61.37,79.72 11.37,21.72 -77.37,95.01 -36.29,-12.81 -84.52,-12.82 -137.35,-10.73 -271.32,10.7 -66.99,120.57 -331.89,122.07 -149.72,0.85 -453.41,8.59 -573.06,-18.02 -21.67,-75.53 -9.43,-96.96 -23.14,-162.62 -29.67,-142.06 -117.17,-74.71 -144.13,-410.94 111.73,-82.48 134.41,-93.32 308.68,-90.91 151,2.09 253.61,31.52 306.79,-72.61 -4.76,-3.17 -12.42,-5.47 -15.74,-6.87l-117.22 -46.35c-79.99,-24.75 -65.26,-13.39 -148.61,-19.21 -129.2,-9.01 -163.25,-49.64 -287.96,-70.41 -159.66,-26.58 -826.94,-173.43 -474.98,-405.56 64.2,-42.34 143.2,-141.5 213.84,-158.22 168.2,-39.85 430.09,30.83 536.46,-128.04 -63.12,-57.12 -605.71,-95.95 -949.84,-205.72 -159.22,-830.24 714.01,-506.41 840.01,-801.45 -185.54,-66.49 -645.45,-64.21 -950.23,-231.4 -127.11,-558.52 185.51,-399.34 465.48,-516.23 97.07,-40.52 148.08,-37.5 218.08,-88.54 117.69,-85.79 113,-120.02 124.27,-171.33 -46.17,-29.95 -392.54,-128.68 -737.88,-369.23 -166.37,-115.9 -359.1,-217.12 -429.68,-405.43 -46.31,-123.54 -38.56,-56.18 -116.03,-143.86 -7.04,-81.48 -16.41,-189.94 0.11,-256.29 25.68,-103.2 34.15,-20.14 12.08,-137.81l-30.25 -1120.62c-14.43,-126.63 29.07,-80.58 -0.59,-184.01 -197.77,-78.23 -180.91,311.64 -168.68,423.51z"/>
   <path class="fil1" d="M22264.82 286.16c-49.19,204.26 -348.1,319.72 -565.43,618.43 -124.79,171.51 -116.55,187.08 -210.18,385.96 -17.28,36.73 -27.14,63.96 -43.93,97.75 -11.99,24.11 -34,63.58 -50.3,94.48 -138.43,262.45 -447.16,561.5 -679.44,774.96 -147.1,135.15 -485.49,479.19 -659.68,486.35 -13.86,-97.39 29.76,-138.11 63.51,-201.39 46.62,-87.43 24.55,-102.42 59.1,-204.45 -241.94,27.35 -799.11,544.2 -935.43,687.85 -41.98,44.24 -36.7,29.24 -90.61,75.5 -180.78,155.11 -442.95,481.33 -608.19,408.34 -19.51,-109.92 54.57,-181.96 109.62,-256.71 319.94,-434.36 251.99,-260.09 474.54,-484.59l822.05 -908.58c-366.89,0 -286.79,30.45 -484.81,221.07l-653.08 586.97c-361.72,349.42 -543.82,291.1 -724.43,372.53l-85.32 57.76c-100.44,72.37 -138.26,67.8 -252.74,152.67l-1115.36 697 -306.49 82.08c57.98,84.33 138.25,148.35 214.89,221.42 64.52,61.53 166.66,110.44 168.41,231.8 157.89,95.57 294.12,-46.82 407.66,-119.67l28.73 -17.2c351.71,-193.76 411.29,-65.45 594.31,175.68 107.98,-55.91 166.67,-38.08 310.75,-132.99 113.55,-74.8 177.9,-122.98 279.7,-195.48 355.55,-253.19 271.66,303.31 659.93,61.74 424.78,-264.3 190.55,-116.76 543.42,-385.3 249.41,-189.81 305.74,-227.91 710.12,-229.2 105.19,177.77 18.21,317.55 79.8,499.77 247.93,99.49 289.25,-174.5 464.14,-110.57 269.9,170.29 -217.11,978.45 946.56,515.49l393.54 -181.64c27.05,-66 11.88,-317.18 15.41,-382.35 1.41,-25.84 2.76,-47.38 9.46,-72.39 12.15,-45.3 13.78,-45.27 30.54,-69.78 204.97,59.68 648.41,-55.1 824.19,24.75 67.57,108.18 25.74,570.39 25.76,738.23 0.07,260.51 -9.57,528.03 2.77,786.95l56.89 21.82 -0.11 -1181.05c86.61,0.2 362.37,92.57 465.78,46 4.64,-4.61 11.03,-18.87 13.17,-14.54 13.8,27.81 21.59,-22.92 25.82,-27.1 95.87,-94.85 190.09,-149.44 337.28,-121.13 102.41,19.7 52.39,38.77 129.97,48.7 6.66,-124.42 -9.68,-183.48 23.71,-291.95 1.62,-5.28 4.52,-13.6 8.12,-19.73 45.91,-36.26 46.9,-38.26 200.78,-36.07 71.85,1.02 143.14,1.27 215.02,1.27 158.41,0.01 317.62,-5.01 475.43,6.89 -32.74,112.18 -6.17,493.04 -6.21,660.71 -0.01,111.27 0.19,222.57 0,333.85 -0.1,55.99 -2.68,112.08 -3.15,167.04 -1.16,134.37 11.78,143.26 56.86,190.55l-3.82 -1179.16 120.34 111.37c63.64,54.95 80.99,93.82 138.03,148.09 329.97,313.93 373.81,-205.45 1390.75,8.86 17.03,-138.6 -12.07,-82.52 66.38,-103.5 8.11,-42.17 -0.57,-35.72 -46.52,-106.36l72.99 -122.77c230.65,-12.6 205.82,-79.19 318.56,-230.69 72.22,-97.04 184.42,-229.95 236.41,-314.26 -146.93,-64.58 -57.75,96.25 -343.44,-16.22 -276.54,-108.85 -200.45,-45.22 -488.69,-226.87 -341.58,-215.26 -245.05,-215.54 -396.22,-319.2 -55.03,-37.75 -91.11,-48.56 -147.52,-90.94 -92.77,-69.71 -151.31,-151.16 -387.78,-327.64l-809.23 -621.6c-20.08,-18.4 -42.77,-37.64 -62.11,-57.12l-423.67 -410.96c-105.25,-131.79 -8.3,-64.2 -204.74,-272.21l-235.14 -289.49c-3.36,-3.59 -8.06,-8.86 -11.47,-12.37 -261.21,-268.8 -201.53,-276.1 -397.01,-485.34 -70.95,-75.96 -146.02,-206.33 -220.64,-256.3 -169.57,89.73 -29.63,79.02 -385.2,234.81 -168.31,73.74 -324.04,51.35 -553.14,51.35z"/>
   <path class="fil2" d="M9002.21 6747.34c-116.16,60.81 100.28,-87.95 -29.38,34.68 -4.97,4.68 92.69,47.36 -340.2,43.96l0 208.89 -95.38 0 0 -54.8c-178.26,-3.96 -265.15,-45.91 -276.55,147.76 -18.84,320.24 36.14,855.55 28.49,1120.92 -6.47,224.82 -24.38,485.85 -22.72,741.58 0.85,127.54 -4.04,254.15 -4.55,381.57 -0.79,195.26 35.84,316.1 -43.25,322.6 46.12,51.42 141.48,70.42 189.66,93.49 126.29,60.5 50.52,47.59 107.39,149.62 140.3,26.83 330.79,-8.03 438.57,17.22 62.99,31.7 68.11,111.28 127.84,208.42l70.71 94.83c46.71,28.92 75.5,14.7 135.71,30.6 35.13,78.84 16.15,140.66 35.63,190.85 232.11,48.64 1182.14,19.02 1478.94,13.43l552 -24.59c155.42,-15.58 298.97,-87.57 360.35,-216.25 102.3,-214.43 103.65,-58.23 134.04,-260.11 -68.13,-13.99 -68.69,-15.74 -116.9,-47.81 94.48,-6.53 306.72,-224.41 388.24,-307.24 57.14,-58.05 48.93,-40.52 88.81,-122.12 110.04,0 124.27,25.33 166.93,-47.69 74.59,140.64 380.63,407.73 537.18,464.51 -69.96,-26.54 -102.89,17.61 -155.52,84.09 11.02,78.29 -7.09,68.58 86.78,152.35 169.14,151 95.43,-64.77 418.18,181.51 -11.39,109.4 -24.23,300.12 9.04,405.39 122.83,66.58 527.49,22.02 682.43,-16.38 142.08,-35.2 54.17,5.53 124.87,-72.89 94.59,-104.91 135.93,-275.54 126.14,-429 -14.16,-6.32 -50.64,-23.2 -66.9,-31.24 -109.59,-54.17 -109.15,-49.66 -260.04,-47.2 -49.97,0.82 -142.32,5.95 -188.2,0.37 -106.6,-12.96 2.87,5.9 -97.85,-47.35l28.79 -7.78c30.72,-119.16 -41.09,-51.99 120.68,-110.48 -109.4,-245.31 89.14,-347.18 80.73,-501.94 -95.47,-32.1 -52.81,36.37 -132.45,-52.45 -44.69,-49.83 -44.81,-112.4 -49.72,-174.17l238.1 -11.73c-0.37,34.49 14.61,177.14 -23.61,95.27 36.06,-97.06 -11.55,-43.74 95.15,-66.22 14.46,-37.82 -2.51,19.88 68.33,-27.85l34.1 -29.84c3.5,-10.88 12.79,-10.51 16.79,-17.54l-166.69 22.1c16.62,-90.93 84.74,-185.79 21.82,-259.68 -33.56,-39.37 -200.89,-29.71 -194.78,-384.71 2.09,-121.1 -27.85,-145.07 -72.51,-221.63 -86.9,-93.86 -81.25,-509.1 -83.13,-686.09 -128.92,3.78 -67.1,28.25 -196.22,36.99 -65.66,4.46 -146.84,0.52 -214.53,1.16l-1335.05 -0.45c-135.34,0.75 -102.38,-26.96 -222.95,-35.52 40.9,197.91 18.94,582.71 -113.85,737.45 -140.94,164.24 101.28,421.57 -248.49,557.7 -4.46,180.07 35.32,168.76 40.29,329.5 99.95,-23.28 125.55,-28.83 261,-28.34 -28.41,121.82 -58.15,135.46 -126.36,189.24 -142.33,112.2 -0.85,74.67 -1.26,311.28 -0.15,88.27 -0.9,207.7 -11.91,300.89l-311.31 1.13c-23.87,-101.99 -4.3,-3378.97 -4.18,-3853.54 0.11,-396.12 -22.6,-183.9 32.04,-490.38l-581.19 -8.33 0 45.61c-116.57,0 -109.19,-19.74 -139.5,-29.18 -86.3,-26.86 -49.89,-33 -146.66,5.22l-398.8 -14.39c7.58,106.4 7.11,-16.57 26.08,93.55l5.17 397.9c0,182.82 0,365.65 0,548.49 0,937.07 39.63,2388.47 -4.15,3214.3l-146.78 -1.9c-68.47,-366.75 73.11,-2870.02 -29.5,-2974.12 -51.51,-32.67 -81.29,-37.08 -161.44,-21.37l-172.83 42.02 1.08 -199.97 -205.31 -5.95c37.03,-110.27 48.17,-54.57 65.22,-100.83 -133.82,-35.92 -145.06,1.04 -230.75,22.6z"/>
   <path class="fil3" d="M28020.38 9583.15l137.87 -9.84c38.98,101.33 -4.67,43.84 52.8,75.45 27.89,-75.85 19.8,-39.01 47.69,-69.03l456.49 2.05 8.77 343.03 231.44 3.32c37.03,-197.28 5.88,-705.26 9.24,-937.78l-1.8 -593.25c-26.9,-148.53 -100.55,-7.71 -70.89,-165.65 19.43,-103.43 -6.95,-18.35 70.22,-75.75 -42.17,-25.16 26.73,21.41 -49.03,-11.44 0,0 -92.66,-5.26 -76.05,-103.83 22.61,-134.22 14.51,-35.51 48.54,-63.9 28.32,-23.61 111.67,26.05 76.82,-103.45 -32.73,-121.61 -7.18,-12.31 -123.91,-75.09l-2.77 -143.09c104.01,-60.71 128.08,41.68 128.21,-96.16 0.15,-146.29 -16.19,-37.08 -119.48,-94.61l-4.64 -156.42 229.68 -14.49c48.95,-128.87 -3.04,-187.71 191.7,-162.78 38.24,74.65 24.04,97.78 46.72,160.54l224.52 9.91 4.68 163.21c-107.91,47.2 -102.25,-34.95 -100.99,94.6 1.22,125.25 0.97,42.34 98.31,96.21l1.68 143.09c-34.04,18.32 -195.47,16.49 -62.19,158.92 48.34,51.66 62.61,8.12 66.15,151.08 -66.43,57.05 -35.5,15.51 -103.46,47.69 162.86,131.79 0.49,90.41 -6.8,307.73l9.46 777.76 213.58 4.36c21.9,-121.81 10.23,-253.75 8.49,-375.03 -1.9,-132.1 16.45,-210.28 51.96,-329.48 115.49,-49.27 156.67,-18.25 276.5,-37.48 9.87,-63.64 -2.69,-178.76 33.52,-227.24 37.08,67.27 13.04,134.97 29.97,232.73l227.76 4.63 7.5 161.87 519.34 7.86c30.27,226.05 -43.74,62.32 -42.88,232.49l573.89 11.58 -5.6 -2536.45c-15.2,-25.71 -9.41,-3.75 -17.82,-52.43 -4.31,-24.94 -5.01,-39.67 -6.03,-65.08 -2.05,-51.08 1.41,-115.76 1.58,-168.61l0.04 -953.92c-183.48,-4.1 -24.23,-27.72 -183.53,-198.03 -96.36,-103.01 -81.25,-114.98 -268.35,-113.2l-2219.89 2.54c-112.65,-14.51 -41.12,13.48 -94.5,-36.53 -208.91,-3.51 -338.25,128.7 -370.45,312.01l-154.06 27.22c-22.06,148.75 17.98,306.38 9.67,392.03 -0.46,4.79 -1.19,12 -1.41,17.07l3.6 258.75c-0.12,5.99 -1.04,12.71 -1.22,18.72 -0.18,6.01 -1.15,12.74 -1.31,18.76l4.18 177.58c22.61,143.83 -8.49,208.96 -3.33,353.29 0.22,6.17 1.86,13.26 2.02,19.33l2.02 162.74c6.29,115 -22.32,5.99 -9.72,117.77l4.98 413.64c-0.19,6.1 -1.12,12.83 -1.23,18.95l2.98 1056.49c-0.16,5.75 -1.19,12.52 -1.37,18.32l-0.16 185.09c0.01,5.72 0.22,12.46 0.33,18.14l3.6 842.68c4.75,102.61 0.38,-2.62 -8.97,61.98 -15.52,107.02 7.14,6.94 8.06,118.52l-12.72 168.33z"/>
   <path class="fil2" d="M28020.38 9583.15l-434.45 1.13c-12.75,150.29 30.25,144.65 25.11,216.97 -51.47,54.31 35.93,20.29 -90.85,37.03l-698.69 -29.12c1.95,-86.01 45.12,-62.73 35.73,-224.57 -112.74,-7.52 -226.23,-2.69 -339.49,-2.46 -179.53,0.37 -201.67,-30.32 -286,64.71 -66.24,-104.39 27.06,-42.97 -94.89,-67.31 -8.07,-1.61 -126.21,-2.4 -143.12,-2.46 -89.97,-0.26 -186.88,-2.91 -255.06,18.6 -73.85,193.8 3.21,1082.19 -22.87,1383.8l-159.3 37.86c-11.78,125.99 -28.52,374.86 40.07,457.26l-54.71 1.09c28.34,35.18 74.56,65.52 116.4,0.78 30.19,-46.69 15.2,-113.52 12.15,-181.13 133.31,10.8 261.61,8.96 395.37,7.56 268.84,-2.8 188.41,-45.5 261.33,-115.13 128.23,31.61 127.31,10.09 242.88,5.83 -2.96,39.16 -7.04,70.97 -2.84,111.13l22.39 94.04c7.47,3.1 16.34,5.6 23.13,7.26l94.79 17.48c30.1,2.39 87.94,-0.07 120.6,-0.42 356.05,-3.88 518.98,62.87 596.03,-119.71 243.81,0 248.17,25.31 381.53,-104.38l524.65 -0.34c57.12,148.49 265.03,104.72 451.36,105.03l25.71 118.92c47.61,0 151.72,6.76 193.23,3.34 34.6,-2.84 37.16,-2.36 70.22,-13 137.35,-44.18 103.57,-256.89 87.65,-303.53 -9.68,-28.32 12.04,-80.5 -166.97,-92.09 65.01,-101.81 126.23,-97.29 291.88,-95.87l763.18 -21.38c131.45,-45.93 -0.42,-114.41 167.74,-130.15 88.27,-8.26 93.4,7.88 188.26,-15.03 39.18,-95.51 38.95,-239.22 2.33,-333.63l-286.63 -23.17c-95,-2.06 -106.12,-22.8 -190.32,-24.64 84.05,-67.08 458.82,1.05 657.85,-319.57 28.29,-45.59 3.34,-9.57 30.58,-46.94 61.51,-84.42 -49.74,12.37 27.1,-28.07 75.17,-18.16 286.72,45.4 230.99,-127.82 -32.02,-99.52 -145.54,-84.92 -305.36,-66.82 -134.18,15.21 -83.02,76.59 -144.27,-30.8l39.44 -10.87c3.69,-1.12 10.83,-3.34 14.84,-4.6l215.92 -73.71c142.1,-75.12 56.17,26.05 273.07,-82.05 33.39,-16.63 7.67,-5.87 63.58,-27.78l137.16 -52.95c95.28,-42.61 203.62,-105.17 261.59,-178.84 314.98,33.91 221.43,52.81 452.66,171.15l137.42 58.57c217.98,99.34 185.79,57.27 314.05,78.79 43.84,7.35 446.23,250.35 354.7,-209.22l-148.34 -73.9c51.21,-41.5 15.61,-19.8 36.19,-51.05l64.09 -76.89c25.19,-15.97 -13.58,9.99 30.94,-14.05 78.34,-42.28 94.15,-60.3 103.71,-166.25 8.97,-99.53 -12.16,-401.69 -88.58,-474.26l18.29 106.05c-64.89,-27.24 -63.01,-31.43 -134.79,-50.65 -209.37,-56.07 -156.34,-117.82 -258,-168.86 -30.04,18.17 -25.31,50.34 -107.84,78.23l-11.4 -314.49c-86.31,26.72 -30.96,84.16 -44.59,325.62l-153.25 10.16c-12.86,103.24 17.68,59.33 -40.62,127.41l-180.98 2.31 -245.82 1.04c-14.4,165.02 33.74,102.71 27.31,240.14l-216.55 4.97 -573.89 -11.58c-0.86,-170.17 73.15,-6.44 42.88,-232.49l-519.34 -7.86 -7.5 -161.87 -227.76 -4.63c-16.93,-97.75 7.11,-165.46 -29.97,-232.73 -36.21,48.48 -23.65,163.6 -33.52,227.24 -119.83,19.22 -161.01,-11.8 -276.5,37.48 -35.51,119.2 -53.86,197.38 -51.96,329.48 1.73,121.28 13.41,253.22 -8.49,375.03l-213.58 -4.36 -9.46 -777.76c7.29,-217.32 169.66,-175.94 6.8,-307.73 67.96,-32.18 37.03,9.37 103.46,-47.69 -3.54,-142.96 -17.8,-99.42 -66.15,-151.08 -133.28,-142.43 28.15,-140.6 62.19,-158.92l-1.68 -143.09c-97.34,-53.87 -97.1,29.04 -98.31,-96.21 -1.26,-129.55 -6.92,-47.4 100.99,-94.6l-4.68 -163.21 -224.52 -9.91c-22.68,-62.76 -8.48,-85.89 -46.72,-160.54 -194.74,-24.93 -142.75,33.91 -191.7,162.78l-229.68 14.49 4.64 156.42c103.28,57.53 119.63,-51.68 119.48,94.61 -0.14,137.84 -24.21,35.44 -128.21,96.16l2.77 143.09c116.73,62.78 91.19,-46.52 123.91,75.09 34.84,129.5 -48.51,79.84 -76.82,103.45 -34.02,28.38 -25.93,-70.33 -48.54,63.9 -16.62,98.57 76.05,103.83 76.05,103.83 75.76,32.85 6.85,-13.72 49.03,11.44 -77.17,57.4 -50.79,-27.69 -70.22,75.75 -29.67,157.94 43.99,17.12 70.89,165.65l1.8 593.25c-3.36,232.52 27.78,740.5 -9.24,937.78l-231.44 -3.32 -8.77 -343.03 -456.49 -2.05c-27.89,30.02 -19.8,-6.83 -47.69,69.03 -57.46,-31.61 -13.82,25.89 -52.8,-75.45l-137.87 9.84z"/>
   <path class="fil2" d="M22108.41 5400.81c-36.48,253.46 -12.68,1117.21 -21.59,1158.04 -25.19,115.65 1.13,25.31 -90.91,94.48 -1.37,527.76 -41.68,1111.66 21.95,1603.31l-232.42 -17.57 102.14 55.53c270.49,78.9 1616.31,-12.51 1911.76,-14.39 77.52,-0.51 1934.23,4.14 1999.42,-25.68 59.47,-27.21 19.47,-1.99 55.48,-39.39 -167.9,45.94 -549.32,35.81 -742.25,35.81l-3.82 -1632.74 -55.21 -6.24 -6.65 -1150.27c-36.14,-100.85 12.06,-14.99 -85.13,-72.28l-5.58 -1534.24 -856.64 -4.74 7.2 1539c-82.12,48.59 -112.5,-30.94 -108.24,237.87l-1.43 985.89c-106.75,19.5 -779.96,27.97 -873.7,2.38 -15.43,-263.4 44.7,-1018.13 -27.58,-1204.34l-56.89 -21.82c-12.34,-258.91 -2.7,-526.44 -2.77,-786.95 -0.03,-167.85 41.8,-630.05 -25.76,-738.23 -175.78,-79.86 -619.22,34.92 -824.19,-24.75l-6.43 1549.95 -70.75 11.37z"/>
   <path class="fil4" d="M16711.51 4483.37l11.4 2178.77c18.77,124.98 -8.18,81.03 65.41,117.48 54.13,-23.32 70.75,39.93 68.32,-245.07l-0.59 -978.19c0.31,-285.49 -43.35,-453.23 73.33,-574.41 92.43,-95.99 229.69,-241.86 335.87,-311.87 57.74,29.37 59.01,38.43 107.04,87.05 46.9,47.48 58.07,61.29 107.58,92.63 100.4,-62.49 97.07,-90.19 155.07,-140.73 57.79,-50.37 -0.94,-11.73 59.55,-41.65l397.34 390.77 16.48 3288.85 105.74 108.77c66.24,-79.42 16.14,-2341.47 21.09,-2638.97 2.84,-171.14 94.18,-204.35 174.8,-284.35 79.81,-79.16 143.57,-162.66 238.43,-220.31 104.57,60.51 114.97,127.67 214.62,181.12 112.18,-64.52 105.43,-120.69 214.64,-181.3 34.54,22.96 35.7,22.36 66.09,47.54l810.31 13.69c39.7,147.9 10.96,1170.85 12.63,1473.09 0.75,135.41 -15.2,76.95 50.84,154.19 50.16,51.61 35.65,74.52 180.94,53 9.08,-104.94 -15.28,-102.3 25.8,-209.37l247.17 -24.68 -0.45 -953.05 77.79 -33c78.87,-21.83 758.93,15.86 777.23,19.25 13.65,23.67 13.39,15.02 22.24,62.49 22.76,121.92 -13.48,367.25 -9.6,486.91 6.25,193.51 27.92,388.87 24.58,585.16 -4,234.69 -41.46,1014.33 3.62,1191.04l71.77 -9.12 136.81 -11.24c77.63,-405.83 -104.1,-1407.07 108.44,-1516.22 6.46,-3.32 29.23,-9.83 36.4,-12.64l59.29 -23.37c15.82,-897.1 -137.29,-1140.94 255.12,-1083.02l24.26 -39.62c57.37,-96.17 -28.12,-2.51 49.49,-82.18l70.75 -11.37 6.43 -1549.95c-16.77,24.51 -18.39,24.48 -30.54,69.78 -6.7,25.01 -8.06,46.54 -9.46,72.39 -3.54,65.16 11.63,316.35 -15.41,382.35l-393.54 181.64c-1163.67,462.97 -676.66,-345.2 -946.56,-515.49 -174.89,-63.92 -216.21,210.06 -464.14,110.57 -61.59,-182.22 25.39,-322 -79.8,-499.77 -404.38,1.3 -460.71,39.39 -710.12,229.2 -352.87,268.54 -118.64,120.99 -543.42,385.3 -388.27,241.57 -304.39,-314.93 -659.93,-61.74 -101.81,72.5 -166.15,120.68 -279.7,195.48 -144.08,94.91 -202.77,77.08 -310.75,132.99 -183.02,-241.14 -242.6,-369.44 -594.31,-175.68l-28.73 17.2c-113.54,72.85 -249.76,215.24 -407.66,119.67z"/>
   <path class="fil5" d="M27330.81 3386.27c-51.99,84.31 -164.19,217.22 -236.41,314.26 -112.74,151.5 -87.91,218.09 -318.56,230.69l-72.99 122.77c45.94,70.64 54.62,64.18 46.52,106.36l-40.63 46.16 71.36 38.39c-3.9,9.22 -9.09,18.65 -13.57,26.79 -4.18,7.6 -8.29,16.29 -13.09,24.78 -4.22,7.47 -8.26,14.25 -12.36,21.27l-30.92 46.27c82.18,61.62 38.56,9.05 69.22,79.69l-69.96 63.39c107.32,131.86 -28.33,75.98 39.18,203.18 2.09,3.95 10.24,21.38 11.97,17.3 1.83,-4.31 9.68,11.37 12.96,17.99 -66.24,57.29 -73.38,130.66 -78.48,121.25 -2.12,-3.89 -5.79,15.05 -10.21,21.72 -72.89,-0.1 -144.65,-0.34 -217.49,-1.76 -134.33,-2.61 -130.26,-29.18 -140.39,50.54l-118.94 -5.87c6.21,3.63 15.93,0.96 19.22,9.86 20.55,55.69 -2.66,-15.18 96.37,52.18 409.23,278.39 513.55,1640.41 569.09,2067.56 85.02,653.78 99.58,1839.33 95.98,2575.26 -0.14,28.53 -2.03,63.31 1.8,90.63 9.57,68.21 -7.71,27.29 20.92,60.65l599.64 13.68c5.15,-72.32 -37.86,-66.68 -25.11,-216.97l434.45 -1.13 12.72 -168.33c-0.91,-111.58 -23.58,-11.5 -8.06,-118.52 9.35,-64.6 13.72,40.63 8.97,-61.98l-3.6 -842.68c-0.11,-5.68 -0.31,-12.42 -0.33,-18.14l0.16 -185.09c0.18,-5.8 1.2,-12.57 1.37,-18.32l-2.98 -1056.49c0.11,-6.12 1.04,-12.85 1.23,-18.95l-4.98 -413.64c-12.6,-111.78 16.01,-2.77 9.72,-117.77l-2.02 -162.74c-0.16,-6.08 -1.8,-13.16 -2.02,-19.33 -5.16,-144.34 25.94,-209.46 3.33,-353.29l-4.18 -177.58c0.16,-6.02 1.13,-12.75 1.31,-18.76 0.18,-6.01 1.09,-12.72 1.22,-18.72l-3.6 -258.75c0.22,-5.07 0.94,-12.27 1.41,-17.07 8.31,-85.64 -31.73,-243.28 -9.67,-392.03l154.06 -27.22c32.21,-183.3 161.54,-315.52 370.45,-312.01l0 -60.18 620.03 0 0 -71.54c-93.56,-7.78 -39.28,4.05 -107.54,-35.52l-450.98 -384.63c-21.03,-28.53 -7.52,-15.14 -30.6,-43.53 -103.01,-126.77 -51.13,18.83 -54.75,-60.96 -43.02,-104.14 -3.78,9.01 6.55,-80.63 7.3,-63.32 0.86,-21.09 -6.55,-110.14 -316.74,-73.79 -177.36,-59.61 -350.41,-245.78l-186.97 -242.27c-5.88,-8.77 -22.46,-37.55 -26.57,-44.97 -29.95,-54.01 -3.33,16.66 -32.22,-63.17l-594.07 23.85z"/>
   <path class="fil5" d="M15390.51 4817.1c-0.29,28.79 -1.87,101.44 -0.57,120.47 3.85,56.59 -5.12,22.42 10.06,68.93 22.13,67.77 -23.95,11.84 34.91,61.59 -12.23,-111.87 -29.09,-501.74 168.68,-423.51 29.65,103.43 -13.84,57.38 0.59,184.01l30.25 1120.62c22.06,117.67 13.6,34.61 -12.08,137.81 -16.52,66.35 -7.15,174.81 -0.11,256.29 77.48,87.68 69.72,20.32 116.03,143.86 70.58,188.31 263.31,289.53 429.68,405.43 345.33,240.55 691.7,339.27 737.88,369.23l301.13 15.03c-1.05,374.77 17.05,1470.6 -5.95,1809.47 -12.36,182.07 -36.49,141.35 20.34,215.59l51.33 -77.93 39.28 -120.35c65.98,-55.43 45.87,-52.75 47.44,-208.71 54.82,-46.65 10.02,-15.47 83.79,-47.69 13.33,-172.28 -26.19,-141.16 77.02,-246.11 56.92,-57.87 94.75,-100.02 151.81,-157.91 316.99,-321.6 42.95,-230.42 260.96,-372.07 189.25,158.51 22.58,155.67 175.34,275.81l-16.48 -3288.85 -397.34 -390.77c-60.5,29.93 -1.76,-8.71 -59.55,41.65 -58,50.54 -54.67,78.24 -155.07,140.73 -49.52,-31.35 -60.69,-45.15 -107.58,-92.63 -48.03,-48.62 -49.3,-57.68 -107.04,-87.05 -106.18,70.01 -243.44,215.88 -335.87,311.87 -116.68,121.18 -73.02,288.92 -73.33,574.41l0.59 978.19c2.43,285 -14.19,221.75 -68.32,245.07 -73.59,-36.45 -46.64,7.5 -65.41,-117.48l-11.4 -2178.77c-1.75,-121.36 -103.88,-170.26 -168.41,-231.8 -76.65,-73.07 -156.91,-137.09 -214.89,-221.42 -183.97,152.19 -114.29,190.77 -303,190.77 -39.12,-108.05 -76.93,-50.05 -119.24,-166.93 -112.96,30.17 -243.48,208.3 -329.1,290.91 -134.77,130.04 -40.33,63.44 -83.94,226.08 -21.2,79.08 -23.8,31.63 -62.31,103.54 -31.74,59.25 -20.6,60.91 -40.11,142.58z"/>
   <path class="fil3" d="M25108.17 6618.21l3.82 1632.74c192.93,0 574.35,10.13 742.25,-35.81 67.64,-41.26 176.31,-18.06 258.45,-28.79 97.51,-12.74 54.23,-19.44 138.48,-39.44 28.58,-6.79 28.43,-7.5 54.91,-6.72 55.59,1.61 12.83,-7.14 52.48,15.5 -6.55,152.86 -39.31,81.41 -168.35,126.32 -95.34,240.68 58.22,222.35 -315.98,224.75 -160.34,1.02 -363.26,-11.93 -514.11,17.83 -26.58,93.67 -44,298.85 5.08,394.21 124.81,86.78 587.1,35.44 771.26,47.57 37.98,83.08 30.13,63.12 13.42,143.61l-728.95 37.94c-109.13,166.67 28.15,956.83 42.91,1178.79 14.76,221.78 -17.73,365.96 28.55,600.08 29.79,150.63 -4.34,486.42 49.48,548.9l54.71 -1.09c-68.59,-82.39 -51.85,-331.27 -40.07,-457.26l159.3 -37.86c26.08,-301.62 -50.98,-1190 22.87,-1383.8 68.18,-21.5 165.09,-18.85 255.06,-18.6 16.92,0.05 135.05,0.85 143.12,2.46 121.95,24.34 28.64,-37.08 94.89,67.31 84.33,-95.04 106.46,-64.35 286,-64.71 113.26,-0.23 226.75,-5.07 339.49,2.46 9.39,161.84 -33.78,138.56 -35.73,224.57l698.69 29.12c126.78,-16.74 39.37,17.28 90.85,-37.03l-599.64 -13.68c-28.63,-33.35 -11.35,7.56 -20.92,-60.65 -3.84,-27.32 -1.94,-62.09 -1.8,-90.63 3.6,-735.93 -10.96,-1921.48 -95.98,-2575.26 -55.54,-427.15 -159.86,-1789.17 -569.09,-2067.56 -99.04,-67.36 -75.83,3.51 -96.37,-52.18 -3.29,-8.9 -13.01,-6.23 -19.22,-9.86 -244.6,-102.94 -458.86,315.52 -524.27,483.2 -213.73,547.91 -368.83,2212.45 -341.55,2789.85l-187.79 4.76c13.31,-264.97 4.12,-549.59 4.19,-816.67 0.04,-135.14 -0.05,-270.28 -0.14,-405.41 -0.14,-192.98 38.71,-350.93 -50.28,-368.97z"/>
   <path class="fil3" d="M18490.92 8873.48l-1.46 188.35 99.88 71.58c-12.89,119.73 -30.3,285.15 22.34,372.43 66.76,110.71 69.06,145.57 123.89,297.34l402.65 0.72 5.65 314.61 2632.99 6.39 7.86 579.37 202.24 -0.74 14.51 -1561.06 -491.45 9.64c-41.3,-56.8 -49.68,-120.54 -33.57,-182.73 -102.4,68.15 11.48,-29.76 -38.57,54.62 -3.97,6.69 -18.36,34.17 -21.5,39.81l-321.47 26.94 -3.13 -552.65 -602.28 -6.87 -20.77 -1671.71 -229.42 8.22 -7.65 211.8 -209.87 15.58 -4.3 -94.67 -224.59 -6.83c-36.82,129.73 -50.71,129.48 -190.65,90.03 -35.8,-78.15 -18.17,-131.72 -18.58,-224.72l-244.9 -8.67 -6.4 1677.6c-177.99,25.34 -431.1,-29.75 -574.52,25.24 -53.42,138.71 -0.55,366.78 -25.34,532.61 -144.09,50.67 -59.91,-5.47 -221.5,-6.72 4.92,-44.25 15.71,-94.82 10.91,-135.57 -7.85,-66.49 3.58,-33.33 -31.01,-69.96z"/>
   <path class="fil2" d="M17272.68 9224c-17.23,200.68 -9.37,240.48 -84.44,425.34 -2.17,5.34 -5.11,11.6 -7.43,16.67l-82.49 139.42c-97.84,-3.55 -275.69,-30.06 -346.4,19.55 26.32,152.91 492.44,107.71 769.01,266.39 -48.84,113.74 -103.64,156.77 -253.71,148.64 -290.68,-15.76 -224.57,-21.28 -384.68,44.45 39.73,287.57 126.82,223.28 140.99,501.04 144.04,10.1 466.08,24.85 601.23,9.45 272.43,-31.03 -111.83,-64.51 442.81,-128.3l-21.19 88.24c88.74,-73.29 16,-15.29 77.37,-95.01l620.01 -0.97c71.79,141.99 169.91,127.6 429.26,116.7 7.65,127.33 -1.16,33.27 23.84,98.5l620.03 0c29.48,55.59 71.75,89.55 100.57,153.7 145.24,22.01 301.93,19.4 449.53,15.25 207.67,-5.84 179.26,-52.09 213,-197.86 278.79,-35.18 331.54,-22.04 324.54,-330.26 120.69,44.93 29.07,29.15 36.3,169.01 5.15,99.5 31.8,122.42 130.22,109 18.31,-39.66 18.5,-72.77 23.06,-134.17 15.2,-204.68 -37.15,-83.73 58.09,-134.48 -42.69,10.55 35.51,250.77 47.93,278.26 85.06,31.93 105.21,23.85 214.62,23.85 49.46,95.16 -37.38,137.8 71.42,274.68 92.28,46 146.02,28.7 262.32,28.07 149.38,44.18 71.12,167.56 263.74,147.63 121.28,-12.56 93.66,-30.62 114.03,-100.5 57.93,-198.69 21.83,-635.03 30.04,-850.55 8.77,-230.16 34.02,-461.2 45.12,-686.83 13,-263.81 92.46,-436.18 -46.21,-496.65 -46.52,-20.27 -110.21,-8.11 -153.74,0.2l-14.51 1561.06 -202.24 0.74 -7.86 -579.37 -2632.99 -6.39 -5.65 -314.61 -402.65 -0.72c-54.83,-151.78 -57.12,-186.63 -123.89,-297.34 -52.63,-87.28 -35.22,-252.7 -22.34,-372.43l-99.88 -71.58 1.46 -188.35 -65.26 -18.57c-5.76,-226.42 -11.88,-176.41 -140.26,-310.97l-71.35 -88.18 -105.74 -108.77c-152.76,-120.14 13.91,-117.3 -175.34,-275.81 -218.01,141.65 56.03,50.46 -260.96,372.07 -57.05,57.89 -94.89,100.03 -151.81,157.91 -103.2,104.95 -63.69,73.82 -77.02,246.11 -73.77,32.22 -28.97,1.04 -83.79,47.69 -1.57,155.96 18.54,153.28 -47.44,208.71l-39.28 120.35z"/>
   <path class="fil2" d="M22535.57 11494.15c20.59,8.55 14.44,10.43 69.79,19.1l2388.04 1.68c171.92,-32.77 108.98,-183.63 97.75,-451.48 -5.16,-123.28 -40.03,-252.84 -50.72,-404.5l-47.61 -1287.44c4.45,-270.31 -6.47,-243.32 -263.49,-238.68l-1812.28 0.63c-181.92,-0.96 -317.85,-55.08 -333.91,140.94 -12.29,150.1 -1.16,306.33 -1.04,455.2 0.3,324.88 -72.17,996.54 -70.54,1311.68 0.72,142.08 -16.52,293.6 16.74,429.76 1.65,6.79 4.16,15.66 7.26,23.13z"/>
   <path class="fil3" d="M31786.11 6391l-12.06 2290.31 180.98 -2.31c58.3,-68.07 27.76,-24.17 40.62,-127.41l153.25 -10.16c13.63,-241.46 -41.72,-298.9 44.59,-325.62l11.4 314.49c82.53,-27.89 77.81,-60.06 107.84,-78.23 101.66,51.03 48.63,112.79 258,168.86 71.79,19.22 69.9,23.41 134.79,50.65l-18.29 -106.05c-123.95,6.84 -218.29,-17.76 -254.69,-128.13 132.16,13.99 150.56,80.62 436.66,32.51 143.05,-254.12 85.6,-164.08 167.62,-426.99 39.51,-126.71 36.58,-129.43 48.82,-269.36 28.88,-329.89 151.97,-209.71 280.82,-299.53 -10.05,-115.22 14.76,-82.76 -106.05,-126.45 -82.41,-29.8 -79.88,-14.57 -134.53,-74.24 37.35,-28.23 9.71,-21.39 76.09,-10.61 288.82,46.97 278.03,62.02 399.37,-557.81 -70.05,81.25 -43.99,36.4 -48.04,142.28 -6.8,176.6 -32.83,148.92 -70.65,181.42l17.08 -756.86c6.76,-77.21 17.2,-565.92 5.67,-620.3 -32.32,-152.34 -138.29,-17.16 -212.9,-90.15 -57.7,-56.43 3.04,30.13 -8.98,-95.87 -9.38,-98.4 -14.36,-24.98 -40.71,-123.71l-1075.33 -2.21c-173.24,7.25 -140.87,71.58 -140.87,240.68 -126.49,0 -140.83,1.09 -238.47,23.84 31.97,384.22 7.14,102.98 -0.78,356.92 -4.41,141.77 3.43,286.87 -1.22,430.04z"/>
   <path class="fil3" d="M38465.26 5978.23c124.53,30.94 37.76,-12.37 88.59,55.08 -43.73,144.57 -21.54,6.01 -89.08,119.23 86.86,64.51 41.33,-12.27 90.59,95.39l-95.35 64.55c47.16,53.14 10.74,6.88 41.22,38.57 32.36,33.65 26.68,16.26 52.74,63.81 -44.71,106.87 3.71,23.95 -94.29,95.38 60.33,64.36 38.43,9.46 95.38,95.39 -58.57,99.52 -21.41,25.86 -94.67,95.39 100.02,81.67 40.79,-23.73 94.05,95.38 -22.46,37.86 -22.94,29.33 -41.15,47.84l-52.32 47.55c88.18,69.71 35.16,-17.12 94.37,95.39 -68.86,85.55 -46,14.5 -90.18,95.39 93.84,70.65 47.17,-10.25 88.39,95.38 -59.99,93.54 -34.49,25.78 -86.19,95.39 71.83,58.94 26.04,2.17 87.39,71.54 -46.47,99.91 -4.64,20.68 -92.68,95.39 58.24,63.58 37.61,9.8 89.99,95.38 -37,119.58 17.23,22.28 -89.89,95.39 89.4,120.05 52.75,-51.21 91.38,142.96 -120.39,56.58 -190.96,71.17 -359.78,45.23l-2.33 -368.58c-29.18,81.14 -39.96,276.7 -14.57,371.18 126.21,55.54 357.47,-44.37 444.82,56.48 68.26,73.38 16.47,378.74 113.28,553.16 67.44,121.51 297.64,25.52 308.99,10.38 46.64,-178.21 23.73,-198.87 -101.41,-238.47 67.62,-39.81 482.97,-231.7 524.29,-310 34.6,-147.82 -12.29,-269.3 71.54,-403.36 0.31,-0.04 431.06,2.65 231.74,-157.8 -51.43,-41.4 -66.27,-36.81 -123.58,-94.35 246.42,-148.43 124.14,-40.3 221.02,-298.94l658.69 10.68c17.12,167.68 -33.23,223.85 132.94,252.08 0,-187.64 -31.07,-188.34 -95.39,-309.89l-131.95 0c-4.89,3.59 -473.71,116.23 -584.54,-95.39l82.26 -95.38c-60.89,-104.25 -26.35,7.96 -81.17,-95.39 54.19,-99.87 20.55,16.19 79.17,-95.39 -4.78,-4.61 -13.53,-16.49 -15.82,-12.1 -2.23,4.27 -12.04,-9.22 -14.96,-12.36 -2.81,-3.02 -10.36,-9 -13.56,-12.87l-40.43 -81.9c44.64,-58.76 14.87,-34.39 77.14,-56.7 -89.75,-59.5 -6.61,-30.39 -95.39,-62.54l0 -95.38c110.75,-9.22 41.71,25.57 95.39,-47.69 -43.5,-21.57 -29.83,-18.4 -95.39,-23.85l0 -119.24c73.83,-6.29 45.08,0.3 95.39,-23.84 -53.68,-73.27 15.36,-38.49 -95.39,-47.69l0 -119.24c73.83,-6.29 45.08,0.29 95.39,-23.85 -53.68,-73.26 15.36,-38.47 -95.39,-47.69l0 -119.24c73.83,-6.28 45.08,0.3 95.39,-23.84 -53.68,-73.27 15.36,-38.47 -95.39,-47.7l0 -119.23c87.75,-7.3 88.09,-7.65 95.39,-95.39 -170.71,-81.9 -93.63,46.99 -268.15,-137.24 -176.31,-186.13 -168.8,-46.86 -208.79,-196.61 -815.45,0 -361.21,6.39 -784.13,265.14 -19.03,11.65 -8.81,14.49 -63.5,32.23 -102.42,33.26 -96.54,-25.75 -138.67,51.96 -28.12,51.85 15.73,72.86 80.11,79.91l0 119.23 -71.54 0 0 71.54 71.54 0 0 119.24c-54.16,21.86 -30.69,-33.12 -34,30.53 -3.06,58.86 -22.12,18.36 34,41.01l0 119.24c-106.3,11.62 -58.95,-35.54 -71.54,64.15z"/>
   <path class="fil5" d="M18214.05 8455.75l71.35 88.18c128.38,134.56 134.49,84.55 140.26,310.97l65.26 18.57c34.58,36.63 23.16,3.47 31.01,69.96 4.81,40.75 -5.99,91.32 -10.91,135.57 161.59,1.24 77.41,57.38 221.5,6.72 24.79,-165.83 -28.08,-393.9 25.34,-532.61 143.42,-54.99 396.53,0.1 574.52,-25.24l6.4 -1677.6 244.9 8.67c0.41,93 -17.22,146.58 18.58,224.72 139.94,39.46 153.83,39.7 190.65,-90.03 -80.13,63.94 -53.29,80.61 -178.29,68.82l-5.87 -194.51c-97.15,-78.89 -62.82,-8.23 -134,-71.55 9.53,-290.39 -0.98,-590.11 2.25,-882.68 3.19,-288.32 15.89,-183.22 -221.67,-439.1l-111.61 -115.13c-30.39,-25.18 -31.55,-24.58 -66.09,-47.54 -109.21,60.6 -102.45,116.77 -214.64,181.3 -99.65,-53.45 -110.06,-120.61 -214.62,-181.12 -94.86,57.66 -158.62,141.16 -238.43,220.31 -80.62,79.99 -171.96,113.21 -174.8,284.35 -4.96,297.51 45.15,2559.56 -21.09,2638.97z"/>
   <path class="fil3" d="M10540.38 5725.36l581.19 8.33c-54.64,306.48 -31.93,94.26 -32.04,490.38 -0.12,474.57 -19.69,3751.55 4.18,3853.54l311.31 -1.13c11,-93.19 11.76,-212.63 11.91,-300.89 0.41,-236.62 -141.07,-199.08 1.26,-311.28 68.21,-53.78 97.95,-67.42 126.36,-189.24 -135.45,-0.49 -161.05,5.07 -261,28.34 -4.97,-160.73 -44.75,-149.43 -40.29,-329.5 349.77,-136.13 107.56,-393.46 248.49,-557.7 132.79,-154.74 154.75,-539.54 113.85,-737.45 120.57,8.56 87.61,36.28 222.95,35.52 -16.78,-26.53 -30.51,-48.85 -49.22,-83.23 33.24,-79.23 25.04,-38.3 67.53,-95.39 -51.1,-77.49 -31.4,-11.54 -67.17,-95.38 43.37,-71.32 -3.43,-9.12 66.88,-71.54 -44.47,-69.32 -30.15,-6.33 -70.78,-100.85l71.88 -89.93c-64.7,-59.87 -26.28,-7.56 -67.65,-71.54 39.66,-97.63 46.17,-22.69 48.24,-136.66l-35.98 -30.25c12.77,-61.34 21.8,-60.3 63.05,-95.39 -41.18,-89.03 -2.36,-4.52 -71.49,-95.39 66.98,-85.19 31.91,-10.53 72.54,-95.38 -59.31,-88.76 -36.14,1.79 -73.08,-102.18l68.69 -40.52c-7.09,-65.19 -7.97,-38.61 -30.69,-67.72 -3.99,-5.09 -19.67,-17.89 -23.84,-22.28 -109.41,-115.75 17.69,67.44 -27.72,-27.65 -30.79,-64.51 19.56,-11.82 82.24,-97.37 -43.5,-21.56 -29.83,-18.39 -95.39,-23.85l0 -95.38c110.75,-9.22 41.71,25.57 95.39,-47.69 -56.74,-38 -24.85,-28.86 -95.39,-47.7l0 -95.39c73.83,-6.29 45.08,0.3 95.39,-23.84 -69.7,-95.12 -113.84,-2.8 -74.91,-153.83 1.52,-5.91 8.42,-23.22 9.52,-28.97l-1.72 -52.85c-0.76,-2.55 -3.99,-9.13 -4.97,-11.51 -0.94,-2.31 -4.76,-8.53 -5.8,-10.62l-12.01 -19.28c-0.72,-1.24 -3.77,-6.01 -5.49,-9.11 53.68,-73.27 -15.36,-38.49 95.39,-47.7l0 -47.69c-98.46,-8.19 -94.97,-26.46 -80.07,-97.75 34.65,-165.95 -13.31,-59.55 3.86,-173.64l-7.18 -128.92c-18.7,-123.83 16.33,-32.78 83.39,-124.32 -43.5,-21.57 -29.83,-18.39 -95.39,-23.85l0 -95.38c110.75,-9.23 41.71,25.57 95.39,-47.7 -91.13,-136.09 -128.49,-43.57 -356.71,-263.32 -114.74,-110.49 -95.42,-96.74 -286.52,-95.05 -492.25,4.36 -227.43,-1.17 -532.1,232.33 -47.28,36.22 -6.06,12.49 -74.67,44.56 -77.58,36.25 -2.12,24.86 -109.29,33.79l0 95.39c129.5,52.26 -6.23,-4.26 28.34,164.16 3.47,16.86 10.28,-18.02 12.36,52.43l-21.39 95.83c-0.15,3.43 0.4,10.27 0.63,13.71 0.27,3.66 2.66,10.49 3.22,14.23 30.81,202.73 -15.56,65.6 3.48,162.66 0.59,2.98 34.2,-5.26 5.12,123.13 -31.1,137.29 -8.85,-58.71 -11.4,41.03 -1.73,67.9 -4.48,-16.9 9.07,41.04 2.53,10.81 16.71,8.34 18.27,80.81z"/>
   <path class="fil6" d="M13861.37 5532.5c-18.95,135.15 -25.2,699.27 -68.39,771.76l-1091.47 7.26 -13.08 465.93c-600.64,101.37 -606.58,-183.18 -624.26,261.97 -94.03,10.81 -132.36,21.42 -195.06,-24.7l-40.86 -44.99c-2.06,113.97 -8.57,39.03 -48.24,136.66 41.37,63.98 2.95,11.67 67.65,71.54l-71.88 89.93c40.63,94.52 26.31,31.54 70.78,100.85 -70.31,62.42 -23.51,0.22 -66.88,71.54 35.77,83.84 16.07,17.89 67.17,95.38 -42.49,57.1 -34.28,16.16 -67.53,95.39 18.7,34.38 32.44,56.7 49.22,83.23l1335.05 0.45c67.69,-0.64 148.87,3.3 214.53,-1.16 129.11,-8.74 67.29,-33.2 196.22,-36.99 1.88,176.99 -3.77,592.23 83.13,686.09 67.73,-25.63 53.05,-718 60.39,-844.66 6.12,-105.33 38.97,-315 41.22,-386.66 0.76,-24.23 -10.03,-130.04 -6.61,-193.69 9.54,-176.9 11.21,-76.74 77.67,-160.87l-40.06 -171.16 112.69 -43.25c30.45,-5.79 60.5,-3.81 91.12,-4.44 40.44,-93.9 27.99,-548.86 30.04,-711.61l277.89 30.28c301.78,59.99 921.43,-49.34 1008.11,37.34 49.37,36.78 18.51,31.09 22.09,116.69 4.38,104.68 1.86,112.18 49.33,169.47 95.16,-107.88 73.03,-24.07 52.54,-154.03 -43.93,-56.63 -30.04,-302.63 -22.91,-394.33 22.84,-294.11 -21.87,-119.16 37.93,-405.41l-51.88 -30.96c3.86,102.16 -15.05,565.99 -39.51,646.17l-1025.31 1.53c-2.36,-163.55 -17.08,-424.51 -39.32,-592.89l-8.49 -321.78 -381.55 -3.28c0,105.75 -14.51,529.88 -41.45,587.37z"/>
   <path class="fil3" d="M8990.33 5459.46l37.23 49.2c-3.81,5.64 -10.85,11.4 -13.94,14.88 -69.97,78.82 -74.59,59.91 -27.07,130.45 118.3,175.63 -43.05,-118.64 35.36,45.44l-66.26 71.54c22.83,64.74 -19.67,23.33 68.86,56.74 -30.57,119.56 -26.69,49.44 -67.09,134.04 28.88,34.02 12.92,14.7 37.75,41.55l28.73 30c-46.24,85.19 -15.14,13.38 -69.89,95.39 55.99,84.92 23.03,9.11 70.41,95.38l-67.55 71.54 66.37 95.39 -40.97 44.54c-3.55,3.82 -20.15,21.26 -25.64,27.01 32.73,94.85 0.2,21.75 66.61,95.39 -14.75,35.91 -8.44,21.9 -27.31,48.99 -7.21,10.35 -24,35.84 -26.54,31.13 -2.31,-4.29 -10.47,9.91 -15.28,15.28 56.13,105.33 29.74,3.28 48.1,94.01 85.68,-21.56 96.92,-58.52 230.75,-22.6 -17.05,46.26 -28.19,-9.45 -65.22,100.83l205.31 5.95 -1.08 199.97 172.83 -42.02c80.16,-15.71 109.93,-11.3 161.44,21.37 102.61,104.1 -38.97,2607.37 29.5,2974.12l146.78 1.9c43.78,-825.83 4.15,-2277.23 4.15,-3214.3 0,-182.84 0,-365.66 0,-548.49l-5.17 -397.9c-18.96,-110.12 -18.5,12.85 -26.08,-93.55l398.8 14.39 0 -95.27c29.16,-22.06 -26.8,-15.47 71.54,-23.85l-71.54 -47.69c0,-51.33 5.62,-88.55 8.16,-132.49 21.86,-378.46 -8.16,-154.11 -8.16,-344.46 71.84,-19.18 52.36,0.3 71.54,-71.54l-71.54 0 0 -95.38 71.54 0 0 -95.39c-115.61,0 -123.05,-17.54 -208.53,-101.47 -287.43,-282.2 -232.85,-208.55 -745.35,-208.55l-33.67 61.72c-44.14,53.94 -230.87,238.56 -347.89,248.29l26.88 316.7c-1.76,14.5 -14.32,72.63 -14.34,72.85 -7.89,129.31 31.14,19.61 12.72,134.77 -11.41,71.4 -7.66,20.89 -25.27,94.19z"/>
   <path class="fil6" d="M36605.2 6238.43c66.8,76.97 32.3,286.33 39.02,414.89 83.45,39.29 91.81,13.49 189.88,33l15.29 1151.75 282.34 21.13 -17.65 -402.72c-32.7,-38 55.7,23.89 -33.57,-22.42 -113.44,-58.82 -130.77,-29.56 -130.19,-128.62 102.87,-46.67 129.31,8.82 246.38,-60.47l341.43 -279.17c78.82,-85.78 49.37,-108.36 92.51,-234.57 120.35,24.9 25.5,156.12 304.32,356.77 66.13,47.61 109.43,87.12 193.32,142.66 115.13,76.24 129.11,34.27 265.57,66.39l-65.22 74.22c-54.09,42.66 -71.5,52.74 -137.18,79.36l2.33 368.58c168.82,25.94 239.39,11.35 359.78,-45.23 -38.62,-194.17 -1.98,-22.91 -91.38,-142.96 107.12,-73.11 52.89,24.19 89.89,-95.39 -52.37,-85.58 -31.74,-31.8 -89.99,-95.38 88.03,-74.71 46.2,4.52 92.68,-95.39 -61.36,-69.37 -15.56,-12.6 -87.39,-71.54 51.7,-69.62 26.2,-1.86 86.19,-95.39 -41.22,-105.63 5.45,-24.73 -88.39,-95.38 44.18,-80.89 21.31,-9.84 90.18,-95.39 -59.21,-112.51 -6.18,-25.68 -94.37,-95.39l52.32 -47.55c18.21,-18.51 18.69,-9.98 41.15,-47.84 -53.26,-119.11 5.97,-13.71 -94.05,-95.38 73.26,-69.53 36.1,4.12 94.67,-95.39 -56.95,-85.93 -35.05,-31.03 -95.38,-95.39 98,-71.43 49.57,11.5 94.29,-95.38 -26.06,-47.55 -20.38,-30.16 -52.74,-63.81 -30.47,-31.69 5.94,14.57 -41.22,-38.57l95.35 -64.55c-49.26,-107.67 -3.73,-30.88 -90.59,-95.39 67.54,-113.22 45.35,25.34 89.08,-119.23 -50.83,-67.44 35.93,-24.14 -88.59,-55.08 -66.11,43.47 -253.78,50.05 -358.96,30.62 -120.68,-22.29 -15.69,-86.18 -33.38,-249.05 -23.54,-216.86 -6.12,-155.75 -609.23,-155.75 -970.19,0 -859.25,-93.02 -857.76,286.9 0.55,141.72 -40.99,234.57 -0.74,347.49z"/>
   <path class="fil7" d="M20017.5 7000.46l4.3 94.67 209.87 -15.58 7.65 -211.8 229.42 -8.22 20.77 1671.71 602.28 6.87 3.13 552.65 321.47 -26.94c3.14,-5.64 17.53,-33.12 21.5,-39.81 50.05,-84.39 -63.83,13.53 38.57,-54.62l509.36 -11.91 12.1 -391.4 -559.71 -12.23 -66.94 -206.99c-109.95,-47.01 -228.82,-45.97 -163,-182.28l158.56 13.63c-45.08,-176.71 -7.62,-956.35 -3.62,-1191.04 3.34,-196.29 -18.32,-391.64 -24.58,-585.16 -3.88,-119.67 32.36,-364.99 9.6,-486.91 -8.85,-47.47 -8.59,-38.81 -22.24,-62.49 -18.29,-3.39 -698.35,-41.08 -777.23,-19.25l-77.79 33 0.45 953.05 -247.17 24.68c-41.08,107.07 -16.72,104.43 -25.8,209.37 -145.29,21.52 -130.78,-1.39 -180.94,-53z"/>
   <path class="fil7" d="M6954.96 6534.08l1013.94 -4.36c26.15,290.26 18.83,830.85 2.33,1125.18 -17.82,318.07 17.58,456.21 8,787.1 -8.48,292.82 -15.78,215.18 57.11,242.12l47.81 -133.14c41.34,68.3 10.32,167.93 -5.54,228.82 -25.37,97.3 -9.91,82.19 -96.25,139.31l-1.49 668.99c44.39,38.15 182.74,80.51 237.8,106.4 79.09,-6.5 42.46,-127.34 43.25,-322.6 0.51,-127.42 5.39,-254.02 4.55,-381.57 -1.67,-255.73 16.25,-516.76 22.72,-741.58 7.65,-265.37 -47.33,-800.68 -28.49,-1120.92 11.4,-193.68 98.29,-151.72 276.55,-147.76l0 -541.37c-442.05,0 -298.3,118.51 -307.28,-1123.56 -1.45,-201.35 -34.39,-140.34 -575.07,-140.34 -183.45,0 -561.72,-38.46 -691.57,23.85 -79.62,165.94 57.21,1041.17 -8.37,1335.43z"/>
   <path class="fil4" d="M22232.82 1681.05c15.02,-0.12 69.32,-5.11 77.62,-5.82 23.06,-1.98 37.27,-5.13 67.04,-6.42 341.8,-14.77 -45.46,389.01 253.49,808.97 392.9,58.58 260.22,-258.09 531.46,-270.79 68.69,575.49 280.4,397.47 -1.42,1108.32 -77.41,195.28 -105.9,213.71 18.32,360.28 144.43,7.6 150.67,0.51 269.57,-45.53 228.32,-88.39 307.56,88.44 439.33,285.51 66.15,98.9 -7.06,49.71 101.89,90.6 41.56,-51.88 20.07,31.78 41.85,-97.3l-7.47 -306.26c-20.41,-148.67 -64.82,-280.11 -105.26,-377.96 -250.24,-605.34 -187.49,-1091.57 -393.65,-1467.29 -105.7,-192.63 -263.69,-413.69 -323.37,-622.85 -190.18,-666.71 75.54,-873.19 -59.84,-951.33 -21.54,-12.44 -66.07,-8.97 -86.7,-1.46 -91.24,33.16 -25.39,-21.57 -62.31,61.11 -60,134.36 -27.32,199.29 -138.22,341.84 -59.2,76.1 -153.31,150.52 -223.58,228.67 -37.26,41.44 -78.76,70.65 -122.18,114l-212.97 262.08c-101.19,107.75 -243.91,94.35 -63.61,491.64z"/>
   <path class="fil8" d="M25108.17 6618.21c88.99,18.04 50.15,175.98 50.28,368.97 0.08,135.12 0.18,270.27 0.14,405.41 -0.07,267.08 9.12,551.7 -4.19,816.67l187.79 -4.76c-27.28,-577.4 127.82,-2241.94 341.55,-2789.85 65.41,-167.68 279.66,-586.14 524.27,-483.2l118.94 5.87c10.13,-79.72 6.06,-53.15 140.39,-50.54 72.84,1.42 144.6,1.67 217.49,1.76 4.42,-6.68 8.1,-25.61 10.21,-21.72 5.09,9.41 12.23,-63.96 78.48,-121.25 -3.28,-6.62 -11.13,-22.31 -12.96,-17.99 -1.73,4.08 -9.88,-13.35 -11.97,-17.3 -67.51,-127.2 68.14,-71.32 -39.18,-203.18l69.96 -63.39c-30.66,-70.64 12.96,-18.08 -69.22,-79.69l30.92 -46.27c4.1,-7.02 8.14,-13.8 12.36,-21.27 4.81,-8.49 8.92,-17.18 13.09,-24.78 4.48,-8.14 9.67,-17.57 13.57,-26.79l-71.36 -38.39 40.63 -46.16c-78.45,20.98 -49.35,-35.1 -66.38,103.5 -1016.94,-214.31 -1060.78,305.07 -1390.75,-8.86 -57.04,-54.27 -74.39,-93.14 -138.03,-148.09l-120.34 -111.37 3.82 1179.16c-45.08,-47.29 -58.02,-56.18 -56.86,-190.55 0.48,-54.97 3.06,-111.05 3.15,-167.04 0.19,-111.28 -0.01,-222.58 0,-333.85 0.04,-167.67 -26.53,-548.53 6.21,-660.71 -157.81,-11.91 -317.02,-6.88 -475.43,-6.89 -71.88,0 -143.16,-0.25 -215.02,-1.27 -153.88,-2.18 -154.86,-0.19 -200.78,36.07l856.64 4.74 5.58 1534.24c97.18,57.29 48.99,-28.58 85.13,72.28l6.65 1150.27 55.21 6.24z"/>
   <path class="fil8" d="M23095.21 5411.24c72.28,186.21 12.15,940.94 27.58,1204.34 93.74,25.6 766.94,17.12 873.7,-2.38l1.43 -985.89c-4.26,-268.81 26.12,-189.28 108.24,-237.87l-7.2 -1539c-3.6,6.13 -6.5,14.44 -8.12,19.73 -33.39,108.47 -17.05,167.53 -23.71,291.95 -77.59,-9.93 -27.56,-29 -129.97,-48.7 -147.19,-28.32 -241.41,26.28 -337.28,121.13 -4.23,4.18 -12.01,54.91 -25.82,27.1 -2.14,-4.33 -8.53,9.93 -13.17,14.54 -103.41,46.57 -379.17,-45.79 -465.78,-46l0.11 1181.05z"/>
   <path class="fil3" d="M8036.34 8684.12c-72.89,-26.94 -65.59,50.71 -57.11,-242.12 9.58,-330.89 -25.82,-469.03 -8,-787.1 16.49,-294.33 23.81,-834.92 -2.33,-1125.18l-1013.94 4.36c-197.02,3.5 -186.82,126.53 -401.88,-11.62 -4.86,-3.13 -12,-9.22 -18.87,-12.23 22.66,74.56 178.81,283.54 249.56,336.17 39.4,29.31 15.39,-32.14 44.02,45.38 -71.79,67.66 -120.76,52.88 -196.08,119.23 32,71.43 262.61,171.18 379.33,240.88 70.79,-23.89 65.06,-29.15 112.73,-66.75l-42.45 145.88 108.16 -19.28c-43.89,67.96 -14.61,68.69 12.33,106.22 228.81,12.92 271.92,42.92 381.55,-125.63 71.53,152.94 -128.06,187.43 -320.68,278.82 -251.48,119.34 -219.5,139.48 -474.83,193.28 -6.18,118.66 170.5,331.43 199.33,351.6 125.1,-48.84 8.7,-33.87 120.27,-81.75l-30.5 169.75c-82.46,33.75 -194.22,73.78 -257.94,118.59 17.39,54.19 8.64,37.65 48.18,71.24 18.79,15.97 54.53,32.34 78.65,44.99 398.37,208.55 285.94,220.04 497.63,123.16 -12.34,81.56 -38.64,104.84 -55.33,195.33 72.52,-9.43 80.73,-30.38 135.89,-59.89l-26.79 136.05 462.2 10.87c39.05,-59.53 54.34,-107.73 76.91,-160.23z"/>
   <path class="fil9" d="M13657.46 8362.67c44.66,76.55 74.6,100.53 72.51,221.63 -6.1,355 161.23,345.33 194.78,384.71 62.93,73.89 -5.2,168.75 -21.82,259.68l166.69 -22.1c209.01,-20.85 621.99,-38.81 743.82,-168.56 22.75,-89.82 50.31,-316.14 -13.31,-398.96 -78.84,-102.61 -260.56,-137.84 -327.03,-155.79 -334.77,-90.44 -320.65,-131.9 -557.29,-96.51l-180.3 -16.44 3.9 -262.56 85.45 5.42c225.74,14.42 474.01,-13.8 578.81,25.01 19.92,7.37 12.42,19.05 72.46,24.6 37.76,3.51 338.25,-46.41 449.79,-125.24l4.72 -420.07c-238.54,-62.46 -775.94,-75.17 -766.55,-344.15 94.97,-84.85 141.07,-54.64 223.07,-116.16 46.58,-34.94 6.79,7.48 41.2,-40.56 -80.93,7.26 -20.27,21.11 -49.9,-10.21 54.27,-84.09 -2.43,-160.04 9.09,-314.04 12.37,-165.36 2.73,-189.91 -18.6,-347.68 -36.89,-272.93 23.97,-498.83 -67.17,-568.08l-277.89 -30.28c-2.05,162.75 10.4,617.71 -30.04,711.61 -30.62,0.63 -60.67,-1.35 -91.12,4.44l-112.69 43.25 40.06 171.16c-66.46,84.13 -68.13,-16.03 -77.67,160.87 -3.43,63.65 7.37,169.46 6.61,193.69 -2.25,71.66 -35.1,281.33 -41.22,386.66 -7.33,126.66 7.35,819.03 -60.39,844.66z"/>
   <path class="fil3" d="M18046.38 10754.9l21.19 -88.24c-554.64,63.79 -170.39,97.26 -442.81,128.3 -135.15,15.4 -457.19,0.66 -601.23,-9.45 -14.17,-277.77 -101.26,-213.47 -140.99,-501.04 160.11,-65.74 94,-60.21 384.68,-44.45 150.07,8.14 204.87,-34.9 253.71,-148.64 -276.56,-158.69 -742.68,-113.48 -769.01,-266.39 70.71,-49.61 248.56,-23.1 346.4,-19.55l82.49 -139.42c2.32,-5.07 5.26,-11.33 7.43,-16.67 75.08,-184.86 67.21,-224.66 84.44,-425.34l-51.33 77.93c-56.84,-74.24 -32.7,-33.52 -20.34,-215.59 23,-338.88 4.9,-1434.7 5.95,-1809.47l-301.13 -15.03c-11.26,51.31 -6.58,85.53 -124.27,171.33 -70,51.03 -121,48.02 -218.08,88.54 -279.96,116.88 -592.59,-42.3 -465.48,516.23 304.78,167.19 764.69,164.91 950.23,231.4 -126,295.04 -999.23,-28.79 -840.01,801.45 344.13,109.77 886.72,148.6 949.84,205.72 -106.37,158.86 -368.26,88.18 -536.46,128.04 -70.64,16.72 -149.65,115.88 -213.84,158.22 -351.96,232.12 315.32,378.97 474.98,405.56 124.72,20.77 158.77,61.4 287.96,70.41 83.35,5.82 68.62,-5.54 148.61,19.21l117.22 46.35c3.32,1.39 10.98,3.7 15.74,6.87 -53.18,104.13 -155.79,74.69 -306.79,72.61 -174.26,-2.4 -196.94,8.44 -308.68,90.91 26.96,336.23 114.46,268.88 144.13,410.94 13.71,65.66 1.47,87.09 23.14,162.62 119.65,26.61 423.35,18.87 573.06,18.02 264.89,-1.5 60.56,-111.37 331.89,-122.07 52.82,-2.09 101.06,-2.08 137.35,10.73z"/>
   <path class="fil4" d="M19950.44 1860.07l-822.05 908.58c-222.55,224.51 -154.6,50.23 -474.54,484.59 -55.05,74.75 -129.13,146.79 -109.62,256.71 165.24,72.99 427.41,-253.23 608.19,-408.34 53.91,-46.26 48.63,-31.26 90.61,-75.5 136.32,-143.65 693.49,-660.51 935.43,-687.85 -34.56,102.03 -12.48,117.02 -59.1,204.45 -33.75,63.28 -77.37,104.01 -63.51,201.39 174.18,-7.17 512.58,-351.2 659.68,-486.35 232.29,-213.46 541.02,-512.51 679.44,-774.96 16.3,-30.9 38.31,-70.37 50.3,-94.48 16.79,-33.79 26.65,-61.03 43.93,-97.75 93.63,-198.88 85.4,-214.46 210.18,-385.96 217.32,-298.71 516.24,-414.17 565.43,-618.43 -151.52,0 -115.3,-21.28 -202.78,51.53l-860.29 689.47c-232.03,141.37 -116.84,28.6 -365.98,254.05 -17.05,15.44 -53.51,44.44 -66.08,53.15 -333.11,230.64 -171.63,351.41 -379.62,455.03 -79.27,39.48 -109.71,17.95 -215.69,22.69 -142.64,6.38 -91.26,38.53 -223.95,47.99z"/>
   <path class="fil3" d="M35128.51 6138.35c111.5,161.31 144.13,-30.66 314.52,181.12 -47.66,54.9 -61.48,34.28 -130.71,82.27 -53.41,388.9 112.24,177.04 457.2,251.36 33.83,225.18 -36.94,436.34 77.02,612.94 148.54,18.14 76.99,-40.37 165.8,-26.13 47.69,73.23 28.37,26.83 51.12,104.98 -110.16,105.62 -115.05,3.78 -129.4,143.08l70.75 36.17c94.57,38.09 146.32,34.31 246.12,32.86l9.08 343.31c272.74,27.01 431.03,15.14 662.39,-19 86.79,-12.81 132.45,6.35 225.82,-13.04l3.4 -309.47c-4.07,-31.81 4.1,-50.15 -37.53,-102.3l17.65 402.72 -282.34 -21.13 -15.29 -1151.75c-98.07,-19.51 -106.44,6.29 -189.88,-33 -6.72,-128.57 27.78,-337.92 -39.02,-414.89 0,82.8 -568.05,33.33 -643.87,33.33 0,-132.39 23.85,-141.42 23.85,-262.31l-262.32 -44.51 -561.96 10.79c7.13,117.55 4.25,-3.15 41.65,72.33 2.8,5.64 6.4,11.26 9.01,17.43l22.79 111.05 -105.84 -38.2z"/>
   <path class="fil5" d="M33499.71 6271.76l-17.08 756.86c37.82,-32.49 63.85,-4.82 70.65,-181.42 4.05,-105.88 -22.01,-61.03 48.04,-142.28l25.99 -66.09 391.89 -13.61c92.02,-259.1 -61.46,-245.5 -108.65,-401.15 56.17,-29.86 327.57,-32.53 615.62,-386.11 57.29,-70.31 74.71,-151.96 147.41,-188.24 132.35,112.06 58.45,190.84 177.51,301.23 65.63,60.84 182.28,169.29 277.41,187.4l105.84 38.2 -22.79 -111.05c-2.61,-6.17 -6.21,-11.8 -9.01,-17.43 -37.41,-75.49 -34.53,45.22 -41.65,-72.33l561.96 -10.79 0 -432.44c-115.37,-30.8 -20.14,-44.52 -189.15,-49.31l-788.58 1.62 0 -143.08 -405.39 0 0 143.08c-739.45,0 -572.32,-151.56 -572.32,786.95l-267.7 0z"/>
   <path class="fil7" d="M31338.99 8927.46l216.55 -4.97c6.43,-137.43 -41.71,-75.12 -27.31,-240.14l245.82 -1.04 12.06 -2290.31 -452.71 0 5.6 2536.45z"/>
   <path class="fil7" d="M21438.59 8169.1c37.16,32.1 -4.31,12.46 66,39.1 31.87,12.06 60.69,16.11 102.57,19.36 56.1,4.34 165.62,7.32 178.28,11.51l232.42 17.57c-63.64,-491.65 -23.32,-1075.55 -21.95,-1603.31 92.05,-69.16 65.72,21.18 90.91,-94.48 8.9,-40.84 -14.9,-904.58 21.59,-1158.04 -77.62,79.66 7.88,-13.99 -49.49,82.18l-24.26 39.62c-392.41,-57.92 -239.29,185.92 -255.12,1083.02l-59.29 23.37c-7.17,2.81 -29.94,9.32 -36.4,12.64 -212.55,109.15 -30.81,1110.39 -108.44,1516.22l-136.81 11.24z"/>
   <path class="fil4" d="M11851.98 6510.63l-68.69 40.52c36.94,103.97 13.78,13.42 73.08,102.18 -40.63,84.85 -5.56,10.18 -72.54,95.38 69.12,90.87 30.31,6.36 71.49,95.39 -41.25,35.09 -50.28,34.05 -63.05,95.39l35.98 30.25 40.86 44.99c62.69,46.12 101.03,35.51 195.06,24.7 17.68,-445.15 23.62,-160.6 624.26,-261.97l13.08 -465.93 1091.47 -7.26c43.18,-72.5 49.44,-636.62 68.39,-771.76 -82.46,19.51 -157.89,80.82 -221.93,142.03l-356.01 216.31c-51.01,21.08 -85.06,25.41 -140.21,50.57 -46.41,21.18 -88.37,48.13 -127.03,63.74l-159.96 55.31c-5.53,2.2 -11.65,4.97 -17.15,7.18l-34.57 13.9c-22.95,9 -47.72,18.06 -62.95,23.58l-50.04 17.64c-5.62,2.29 -53.38,25.49 -54.62,26.17l-530.4 210.43c-5.56,1.99 -11.56,4.74 -17.05,6.79 -5.49,2.06 -11.56,4.75 -17.01,6.84 -165.61,63.49 -120.7,77.23 -156.17,106.16 -27.48,22.42 3.26,23.61 -64.29,31.47z"/>
   <path class="fil5" d="M14428.38 7116.62c204.82,-43.83 722.23,-381.01 828.57,-515.65 36.04,-45.65 54.97,-97.82 78,-136.54 54.07,-90.9 42.09,-60.13 112.49,-120.98 8.4,-86.67 17.2,-226.53 -13.57,-297.37 20.49,129.96 42.62,46.15 -52.54,154.03 -47.47,-57.29 -44.94,-64.8 -49.33,-169.47 -3.58,-85.6 27.28,-79.91 -22.09,-116.69 -86.68,-86.68 -706.33,22.65 -1008.11,-37.34 91.15,69.25 30.28,295.15 67.17,568.08 21.33,157.77 30.96,182.32 18.6,347.68 -11.52,154 45.18,229.95 -9.09,314.04 29.63,31.32 -31.03,17.48 49.9,10.21z"/>
   <path class="fil7" d="M19792.91 6993.64l224.59 6.83c-66.04,-77.25 -50.09,-18.79 -50.84,-154.19 -1.67,-302.25 27.07,-1325.19 -12.63,-1473.09l-810.31 -13.69 111.61 115.13c237.56,255.88 224.86,150.78 221.67,439.1 -3.24,292.57 7.28,592.28 -2.25,882.68 71.19,63.32 36.85,-7.33 134,71.55l5.87 194.51c125,11.78 98.16,-4.89 178.29,-68.82z"/>
   <path class="fil2" d="M13902.82 4945.13l381.55 3.28c46.71,-132.47 238.47,-137.39 238.47,-512.87 -90.2,-60.4 -84.48,-71.54 -238.47,-71.54 -8.27,-99.42 -33.22,-83.99 -40.93,-148.97 -8.14,-68.5 24.29,-109.56 35.27,-166.85 47.03,-245.44 -54.39,-190.1 -65.87,-328.05l119.24 -23.85c0,-82.26 7.63,-92.73 -55.58,-159.05 -3.39,-3.55 -8.79,-8.11 -12.26,-11.58 -50.26,-50.3 -84.85,-69.89 -97.54,-141.57 -7,-39.51 5.19,-201.2 2.25,-212.53 -0.81,-3.13 -3.44,-9.27 -4.66,-12.08l-36.48 -44.33c-40.58,-45.44 13.34,-10.4 -58.07,-62.72 -13.37,122.15 25.53,37.37 -95.39,95.38l-20.97 312.89c-3.02,3.6 -7.5,9.45 -10.64,13.22 -94.34,112.98 17.79,65.16 -111.47,79.3 0,138.78 15.69,156.32 143.08,166.93l0 71.54c-97.07,25.93 -77.68,54.47 -74.43,190.88 4.51,189.99 40.22,113.73 50.6,238.36 -41.25,16.64 -35.78,-10.43 -71.54,143.08 -99.62,0 -150.19,16.78 -214.62,47.7 0,292.43 31.25,350.59 238.46,533.43z"/>
   <path class="fil4" d="M14292.86 5270.19c22.24,168.38 36.96,429.34 39.32,592.89l1025.31 -1.53c24.47,-80.18 43.37,-544.01 39.51,-646.17 14.17,-101.6 26.54,-54.68 37.9,-147.29 -58.86,-49.75 -12.78,6.18 -34.91,-61.59 -15.18,-46.52 -6.21,-12.34 -10.06,-68.93 -1.3,-19.03 0.29,-91.68 0.57,-120.47 -45.53,186.69 -19.1,102.76 -261.42,200.83l-320.08 109.18c-5.39,2.06 -11.26,5.12 -16.7,7.15 -5.49,2.05 -11.48,4.81 -17.08,6.76l-349.27 102.72c-6.16,1.87 -11.5,4.66 -17.9,6.47 -57.51,16.37 -18.96,18.27 -115.2,19.97z"/>
   <path class="fil3" d="M13621.52 10103.54c251.44,-41.8 984.56,-235.89 1116.65,-343.35 -2.03,-130.83 -55.83,-167.33 -167.67,-180.48 -170.2,-20.01 -98.94,7.35 -212.72,-92.62 -265.7,-233.42 -283.39,-3.95 -407.37,-205.27 -106.7,22.47 -59.09,-30.84 -95.15,66.22 38.21,81.88 23.24,-60.78 23.61,-95.27l-238.1 11.73c4.92,61.77 5.04,124.34 49.72,174.17 79.64,88.82 36.97,20.36 132.45,52.45 8.41,154.77 -190.13,256.63 -80.73,501.94 -161.77,58.49 -89.96,-8.68 -120.68,110.48z"/>
   <path class="fil7" d="M8632.63 6825.98c432.89,3.4 335.23,-39.28 340.2,-43.96 129.66,-122.63 -86.78,26.13 29.38,-34.68 -18.36,-90.74 8.03,11.32 -48.1,-94.01 4.81,-5.37 12.97,-19.56 15.28,-15.28 2.54,4.71 19.33,-20.78 26.54,-31.13 18.87,-27.09 12.56,-13.08 27.31,-48.99 -66.41,-73.64 -33.89,-0.55 -66.61,-95.39 5.49,-5.75 22.09,-23.18 25.64,-27.01l40.97 -44.54 -66.37 -95.39 67.55 -71.54c-47.38,-86.27 -14.42,-10.46 -70.41,-95.38 54.75,-82.01 23.65,-10.2 69.89,-95.39l-28.73 -30c-24.83,-26.84 -8.87,-7.52 -37.75,-41.55 40.4,-84.61 36.52,-14.49 67.09,-134.04 -88.54,-33.41 -46.04,8 -68.86,-56.74l66.26 -71.54c-78.41,-164.08 82.94,130.19 -35.36,-45.44 -47.51,-70.54 -42.9,-51.63 27.07,-130.45 3.09,-3.48 10.13,-9.24 13.94,-14.88l-37.23 -49.2c-114.68,77.38 -308.21,-47.57 -353.74,77.02l-3.96 1289.51z"/>
   <path class="fil7" d="M3910.92 9708.89c90.82,-12.67 350.44,-129.87 429.75,-170.26l295.58 -135.78c35.29,-14.24 64.77,-15.48 109.36,-30.96l-0.08 -211.89 -143.05 2.44c-3.32,-5.46 -6.38,-13.46 -8.45,-17.2 -36.52,-65.37 -39.72,-79.28 -120.44,-119.98 -47.95,-24.17 -106.78,-50.84 -162.52,-77.78 -73.32,-35.43 -122.41,-38.41 -161.91,-100.21 -50.45,-78.97 -7.51,-111.47 -95.16,-156.46 20.92,52.65 33.85,73.15 47.7,132.6 -202.33,0 -167.23,-44.26 -166.93,357.7 0.12,161.87 29.76,407.58 -23.84,527.79z"/>
   <path class="fil7" d="M4828.32 8584.94l28.82 56.84c104.85,-30.99 265.34,-143.18 380.46,-209.41 1.08,-0.61 57.63,-35.54 57.79,-35.69 41.76,-37.45 32.62,-17.39 48.22,-74.07 -46.47,-32.26 -186.51,-95.16 -227.5,-104.77l1.52 -194.62 104.87 76.21c57.3,-82.53 176.71,-241.86 182.52,-318.04 -353.17,-41.8 -91.61,47.87 -308.2,-96.07 -66.24,-44.03 -223.8,-120.66 -303.58,-119.95l71.17 42.6 7.13 904.93c-2.69,106.05 58.38,46.58 -43.22,72.05z"/>
   <path class="fil3" d="M7980.87 9588.1l1.49 -668.99c-64.91,10.32 -73.19,15.59 -123.33,39.51l-627.28 294.01c34.65,105.06 629.48,299.62 749.11,335.46z"/>
   <path class="fil7" d="M40431.85 6891.79l13.82 -453.08 -525.73 -0.01 0 -104.39c-62.27,22.31 -32.49,-2.06 -77.14,56.7l40.43 81.9c3.19,3.88 10.74,9.86 13.56,12.87 2.92,3.14 12.74,16.63 14.96,12.36 2.29,-4.4 11.05,7.48 15.82,12.1 -58.63,111.58 -24.98,-4.48 -79.17,95.39 54.82,103.35 20.27,-8.86 81.17,95.39l-82.26 95.38c110.83,211.62 579.66,98.98 584.54,95.39z"/>
  </g>
 </g>
</svg>
