<?xml version="1.0" encoding="UTF-8"?>
<!DOCTYPE svg PUBLIC "-//W3C//DTD SVG 1.1//EN" "http://www.w3.org/Graphics/SVG/1.1/DTD/svg11.dtd">
<!-- Creator: CorelDRAW 2021.5 -->
<svg xmlns="http://www.w3.org/2000/svg" xml:space="preserve" width="45.3663mm" height="16.3948mm" version="1.1" style="shape-rendering:geometricPrecision; text-rendering:geometricPrecision; image-rendering:optimizeQuality; fill-rule:evenodd; clip-rule:evenodd"
viewBox="0 0 688.89 248.96"
 xmlns:xlink="http://www.w3.org/1999/xlink"
 xmlns:xodm="http://www.corel.com/coreldraw/odm/2003">
 <defs>
  <style type="text/css">
   <![CDATA[
    .fil0 {fill:#D67047}
   ]]>
  </style>
 </defs>
 <g id="Layer_x0020_1">
  <metadata id="CorelCorpID_0Corel-Layer"/>
  <path class="fil0" d="M344.43 0c65.84,0 119.21,39.03 119.21,87.18 0,12.99 -3.89,25.31 -10.86,36.39l-56.83 -90.03c-18.99,0.16 -39.86,-0 -58.94,-0l0 53.64 -41.24 0 0 -53.64 -31.6 0 0 53.64 -38.96 0c0,-48.15 53.37,-87.18 119.21,-87.18zm344.46 208.98c-5.74,10.88 -11.52,19.41 -17.32,25.59 -5.8,6.18 -10.93,9.27 -15.41,9.27 -3.24,0 -5.87,-1.25 -7.86,-3.75 -2,-2.52 -3,-5.79 -3,-9.82 0,-1.88 0.28,-4.39 0.84,-7.55 -3.07,4.62 -6.15,8.57 -9.23,11.86 -5.8,6.18 -10.93,9.27 -15.41,9.27 -3.24,0 -5.87,-1.25 -7.86,-3.75 -2,-2.52 -3,-5.79 -3,-9.82 0,-2.27 0.41,-5.49 1.24,-9.64l0.04 -0.18c-3.96,5.06 -8.47,9.53 -13.54,13.41 -8.7,6.67 -16.96,9.99 -24.75,9.99 -5,0 -8.96,-1.61 -11.86,-4.83 -2.9,-3.21 -4.35,-7.62 -4.35,-13.19 0,-8.05 2.63,-14.94 7.89,-20.66 5.26,-5.72 11.6,-8.57 19.01,-8.57 3.58,0 6.46,0.89 8.6,2.7 2.15,1.81 3.23,4.21 3.23,7.24 0,4.96 -2.99,9.36 -8.97,13.18 -5.99,3.82 -12.85,5.74 -20.63,5.74 0,8.12 3.44,12.17 10.32,12.17 5.97,0 12.56,-2.84 19.75,-8.52 6.36,-5.01 12.16,-11.43 17.41,-19.27l6.1 -30.82c-1.08,0.17 -2.02,0.26 -2.83,0.26 -6.35,0 -9.54,-2.72 -9.54,-8.15l0 -0.98c3.33,1.93 7.1,2.9 11.27,2.9 4.19,0 7.86,-1.05 10.99,-3.16l-9.63 50.12c-0.87,4.51 -1.29,7.61 -1.29,9.3 0,4.69 1.72,7.04 5.16,7.04 3.34,0 6.68,-1.88 10.07,-5.63 3.02,-3.36 7.77,-10.13 14.25,-20.3l6.21 -31.4c-1.08,0.17 -2.02,0.26 -2.83,0.26 -6.35,0 -9.54,-2.72 -9.54,-8.15l0 -0.98c3.33,1.93 7.1,2.9 11.27,2.9 4.19,0 7.86,-1.05 10.99,-3.16l-9.63 50.12c-0.87,4.51 -1.29,7.61 -1.29,9.3 0,4.69 1.72,7.04 5.16,7.04 3.34,0 6.68,-1.88 10.07,-5.63 3.37,-3.75 8.9,-11.76 16.59,-24l3.33 2.27zm-122.02 12.45c5.82,-0.31 10.82,-1.96 14.99,-4.99 4.17,-3.01 6.26,-6.5 6.26,-10.45 0,-3.54 -1.59,-5.32 -4.76,-5.32 -3.8,0 -7.29,2.02 -10.51,6.06 -3.2,4.04 -5.2,8.94 -5.97,14.7zm-44.74 21.07c-1.89,0.9 -3.41,1.34 -4.56,1.34 -2.84,0 -4.27,-1.25 -4.27,-3.75 0,-1.28 0.5,-4.45 1.49,-9.54l2.06 -10.37c1.26,-6.17 1.9,-10.73 1.9,-13.71 0,-1.61 -0.45,-2.96 -1.37,-4.04 2.94,-1.01 5.35,-1.51 7.21,-1.51 1.96,0 2.94,1.24 2.94,3.71 0,1.52 -0.7,5.55 -2.1,12.04l-2.39 12.13c5.23,-10.19 10.51,-18.11 15.82,-23.76 5.3,-5.64 10.12,-8.47 14.45,-8.47 1.52,0 2.84,0.44 3.95,1.31 1.11,0.88 1.66,1.95 1.66,3.18 0,1.95 -2.1,4.54 -6.31,7.75 -1.05,-2.19 -2.55,-3.28 -4.49,-3.28 -3.53,0 -8.02,3.75 -13.48,11.25 -3.38,4.66 -6.33,9.47 -8.83,14.42 -2.49,4.96 -3.74,8.49 -3.74,10.59l0.04 0.71zm-46.15 0c-1.89,0.9 -3.41,1.34 -4.56,1.34 -2.84,0 -4.27,-1.25 -4.27,-3.75 0,-1.28 0.5,-4.45 1.49,-9.54l2.06 -10.37c0.62,-3.02 1.09,-5.65 1.4,-7.9 -2.74,1.13 -5.52,1.7 -8.34,1.7 -3.08,0 -6.58,-0.64 -10.51,-1.91 0.09,0.65 0.13,1.27 0.13,1.79 0,8.03 -2.72,15.03 -8.16,21.01 -5.43,5.97 -11.8,8.96 -19.09,8.96 -5.57,0 -10.12,-1.78 -13.64,-5.35 -3.51,-3.57 -5.26,-8.2 -5.26,-13.89 0,-6.46 2.27,-12.07 6.81,-16.81 4.54,-4.75 9.9,-7.12 16.05,-7.12 0.94,0 1.95,0.13 3,0.37 -0.7,-1.25 -1.04,-2.32 -1.04,-3.17 0,-1.35 0.46,-2.63 1.37,-3.85 6.75,0.55 12.38,4.02 16.86,10.42 4.62,3.11 9.43,4.68 14.43,4.68 2.48,0 5.1,-0.63 7.88,-1.89l0.01 -0.75c0,-1.61 -0.45,-2.96 -1.37,-4.04 2.94,-1.01 5.35,-1.51 7.21,-1.51 1.96,0 2.94,1.24 2.94,3.71 0,1.52 -0.7,5.55 -2.1,12.04l-2.39 12.13c5.23,-10.19 10.51,-18.11 15.82,-23.76 5.3,-5.64 10.12,-8.47 14.45,-8.47 1.52,0 2.84,0.44 3.95,1.31 1.11,0.88 1.66,1.95 1.66,3.18 0,1.95 -2.1,4.54 -6.31,7.75 -1.05,-2.19 -2.55,-3.28 -4.49,-3.28 -3.53,0 -8.02,3.75 -13.48,11.25 -3.38,4.66 -6.33,9.47 -8.83,14.42 -2.49,4.96 -3.74,8.49 -3.74,10.59l0.04 0.71zm-32.2 -33.97c-2.29,-0.68 -4.39,-1.79 -6.33,-3.31 -1.41,-0.3 -2.59,-0.44 -3.53,-0.45 -4.68,0.01 -8.83,2.13 -12.45,6.38 -3.62,4.25 -5.43,9.09 -5.45,14.53 0.02,3.95 1.11,7.19 3.3,9.72 2.19,2.55 5,3.81 8.44,3.83 4.66,-0.02 8.67,-2.37 12.04,-7.12 3.35,-4.73 5.03,-10.38 5.05,-16.93 -0.02,-2.29 -0.37,-4.49 -1.08,-6.64zm-89.83 4.51l-5.22 26.19c-0.56,2.55 -0.84,4.36 -0.84,5.45 0,0.58 0.17,1.31 0.5,2.16 -2.79,1.41 -5.33,2.12 -7.59,2.12 -1.46,0 -2.2,-0.58 -2.2,-1.75 0,-0.58 0.28,-2.3 0.84,-5.15l5.77 -29.02 -0.93 0c-5.21,9.4 -9.93,16.54 -14.17,21.41 -4.83,5.57 -9.18,8.36 -13.02,8.36 -3.53,0 -6.01,-1.71 -7.45,-5.1 -1.43,-3.41 -2.15,-9.31 -2.15,-17.72l0 -3.57c0,-4.55 -0.3,-7.73 -0.88,-9.58 -0.58,-1.83 -1.59,-2.76 -3.04,-2.76 -3.67,0 -9.58,7.29 -17.73,21.9 -2.01,3.58 -3.3,5.87 -3.88,6.9 -2.15,3.72 -3.21,6.41 -3.21,8.06 0,0.67 0.19,1.31 0.54,1.92 -1.61,0.65 -2.97,0.98 -4.09,0.98 -2.8,0 -4.21,-1.55 -4.21,-4.66 0,-0.88 0.37,-4.88 1.09,-11.97l0.92 -9.04 0.21 -2.07c-3.98,5.94 -8.34,11.11 -13.08,15.49 -6.61,6.13 -12.3,9.19 -17.05,9.19 -6,0 -9,-4.99 -9,-14.99 0,-2.08 0.09,-4.89 0.26,-8.42 -3.57,7.36 -7.95,13.61 -13.17,18.75 -5.22,5.15 -9.75,7.72 -13.62,7.72 -2.96,0 -5.3,-1.31 -7.08,-3.94 -1.76,-2.62 -2.64,-6.12 -2.64,-10.47 0,-5.63 1.11,-10.83 3.32,-15.59 -2.32,0.66 -4.75,0.99 -7.27,0.99 -2.74,0 -5.35,-0.36 -7.82,-1.05 0.38,1.37 0.58,2.74 0.58,4.17 0,6.97 -2.44,13.02 -7.34,18.17 -4.88,5.15 -10.64,7.72 -17.25,7.72 -4.82,0 -8.76,-1.44 -11.8,-4.32 -3.04,-2.89 -4.56,-6.61 -4.56,-11.16 0,-3.3 0.61,-8.03 1.82,-14.19l6.97 -35.29c-1.35,0.26 -2.55,0.38 -3.57,0.38 -5.93,0 -8.89,-3.13 -8.89,-9.38 1.81,1.76 4.71,2.64 8.69,2.64 3.48,0 8.12,-0.91 13.92,-2.73l-9.95 49.35c-0.64,3.34 -0.97,6.28 -0.97,8.84 0,3.41 0.91,6.18 2.72,8.32 1.82,2.12 4.17,3.18 7.07,3.18 4.38,0 8.09,-1.98 11.15,-5.94 3.06,-3.95 4.58,-8.74 4.58,-14.36 0,-2.77 -0.46,-5.49 -1.38,-8.13 -3.51,-1.17 -6.4,-2.67 -8.64,-4.52 -2.25,-1.86 -3.37,-3.7 -3.37,-5.5 0,-0.94 0.38,-2.17 1.17,-3.7 7.52,0.58 13.24,3.82 17.16,9.72 3.61,1.72 7.41,2.57 11.39,2.57 3.1,0 6.24,-0.72 9.42,-2.14 0.25,-0.34 0.51,-0.67 0.77,-1 5.28,-6.61 11.38,-9.91 18.3,-9.91 4.21,0 8.76,1.31 13.65,3.91 0.73,-2.57 3.67,-3.87 8.84,-3.87 0.34,0 0.88,0.01 1.64,0.04 -1.59,2.42 -2.8,5.72 -3.63,9.91l-0.71 3.55c-0.81,3.94 -1.21,8.56 -1.21,13.84 0,6.08 1.42,9.13 4.25,9.13 3,0 7.09,-2.5 12.3,-7.52 4.87,-4.7 9.68,-10.61 14.4,-17.72 -0.19,-2.28 -0.84,-4.12 -1.96,-5.53 0.58,-0.21 1.56,-0.55 2.92,-1.04 1.73,-0.64 3.1,-0.95 4.12,-0.95 2.17,0 3.26,1.58 3.26,4.75 0,1.66 -0.21,4.52 -0.63,8.57 -0.09,0.9 -0.16,1.74 -0.24,2.55l-1.08 11.62c9.87,-20.83 18.74,-31.24 26.6,-31.24 6.14,0 9.21,6.1 9.21,18.28l0.09 5.03c0,5.81 0.3,9.84 0.9,12.07 0.6,2.23 1.69,3.34 3.27,3.34 2.4,0 5.12,-1.89 8.16,-5.67 2.4,-2.99 6.01,-8.37 10.81,-16.14 -2.66,0.53 -5.38,1.51 -8.15,2.96 1.16,-3.36 2.72,-5.62 4.62,-6.78 1.53,-0.93 3.83,-1.49 6.88,-1.68l0.71 -1.18 1.91 1.11 1.3 0 4.28 -21.61c-2.43,0.36 -4.71,0.54 -6.81,0.54 -4.38,0 -6.97,-2.91 -7.78,-8.74 2,1.68 4.69,2.52 8.08,2.52 4.42,0 9.97,-0.43 16.66,-1.29l-5.73 28.59 21.82 0c2.66,-11.89 5.45,-20.72 8.37,-26.49 1.62,-3.14 3.08,-5.13 4.39,-5.97 1.31,-0.82 3.88,-1.39 7.73,-1.66 0.47,-0.06 1.18,-0.11 2.13,-0.17 -6.58,7.58 -11.25,19.01 -14.01,34.29l0.75 0c2.15,0 4.83,-0.98 8.05,-2.96 -0.67,5.39 -3.34,8.08 -8.02,8.08l-1.82 0c-0.84,4.32 -1.25,8.89 -1.25,13.69 0,7.99 2.46,11.99 7.39,11.99 2.03,0 4.29,-0.87 6.77,-2.59 -0.41,5.47 -4.05,8.22 -10.9,8.22 -8.03,0 -12.04,-6.07 -12.04,-18.21 0,-4.09 0.48,-8.46 1.44,-13.09l-21.82 0zm-117.65 -5.63c-5.84,-3.81 -10.69,-5.72 -14.56,-5.72 -4.19,0 -7.82,2.55 -10.88,7.65 -3.06,5.09 -4.59,11.15 -4.59,18.14 0,5.62 1.83,8.42 5.5,8.42 3.98,0 11.59,-8.72 22.82,-26.16 0.13,-0.23 0.71,-1.01 1.71,-2.33zm-164.47 -4.25c-1.14,-1.31 -1.71,-2.86 -1.71,-4.66 0,-4.61 3.91,-8.92 11.74,-12.91 7.82,-4 16.21,-5.99 25.15,-5.99 13.79,0 20.69,4.38 20.69,13.15 0,4.24 -1.48,7.85 -4.45,10.83 -2.97,2.99 -8.15,6.09 -15.54,9.3 6.65,15.17 12.39,22.76 17.19,22.76 2.53,0 5.25,-1.78 8.13,-5.35 0.14,0.7 0.21,1.18 0.21,1.45 0,2.34 -1.38,4.76 -4.14,7.28 -2.74,2.52 -5.4,3.78 -7.96,3.78 -6.51,0 -13.46,-8.89 -20.83,-26.64 -1.48,0.41 -2.82,0.63 -4.01,0.63 -0.58,0 -1.12,-0.11 -1.64,-0.33 1.04,-5.25 3.66,-7.86 7.86,-7.86 0.84,0 1.86,0.17 3.09,0.5 9.14,-3.06 13.72,-8.12 13.72,-15.18 0,-2.6 -1.29,-4.75 -3.89,-6.43 -2.6,-1.68 -5.91,-2.52 -9.94,-2.52 -6.84,0 -13.41,1.69 -19.72,5.09 -6.31,3.4 -10.96,7.76 -13.96,13.1zm14.97 43.68c-2.83,1.41 -5.39,2.12 -7.69,2.12 -1.44,0 -2.16,-0.58 -2.16,-1.75 0,-0.61 0.31,-2.35 0.95,-5.2l7.98 -40.34c0.47,-2.33 0.71,-4.01 0.71,-5.05 0,-0.97 -0.33,-1.85 -0.97,-2.66 3.67,-1.39 6.23,-2.08 7.66,-2.08 1.73,0 2.6,0.99 2.6,3 0,0.47 -0.45,2.9 -1.36,7.28l-7.32 37.05c-0.53,2.59 -0.78,4.39 -0.78,5.46 0,0.58 0.13,1.31 0.38,2.16zm-43.9 -22.59c-8.36,12.04 -16.56,18.06 -24.61,18.06 -4.37,0 -7.96,-1.59 -10.79,-4.76 -2.83,-3.18 -4.25,-7.21 -4.25,-12.1 0,-9.8 3.81,-22.79 11.42,-39 -2.3,0.44 -4.44,0.67 -6.41,0.67 -2.59,0 -4.48,-0.65 -5.7,-1.95 -1.22,-1.29 -2.08,-3.54 -2.55,-6.75 2.08,1.65 4.78,2.47 8.08,2.47 1.89,0 8.19,-0.48 18.91,-1.47 -9.8,19.14 -14.7,33.75 -14.7,43.82 0,3.61 0.9,6.57 2.69,8.87 1.79,2.3 4.08,3.45 6.9,3.45 3.94,0 7.85,-1.93 11.72,-5.8 3.87,-3.87 7.51,-9.48 10.93,-16.83 2.43,-13.51 4.61,-21.81 6.51,-24.92 1.9,-3.1 5.74,-4.66 11.52,-4.66 -2.53,3.26 -5.02,10.04 -7.49,20.35 -2.46,10.31 -3.7,19.11 -3.7,26.42 0,5.74 1.75,8.62 5.23,8.62 2.19,0 4.78,-1.19 7.74,-3.57 0.11,0.67 0.17,1.17 0.17,1.51 0,1.89 -1.14,3.65 -3.41,5.26 -2.27,1.62 -4.75,2.43 -7.41,2.43 -7.46,0 -11.19,-4.75 -11.19,-14.26 0,-1.34 0.14,-3.28 0.41,-5.84zm388.42 -77.38c-21.74,16.92 -52.62,27.49 -86.88,27.49 -55.92,0 -102.83,-28.15 -115.71,-66.13l35.45 0 0 41.04 31.6 0 0 -41.04 41.24 0 0 41.04 31.6 0 0 -41.04 26.53 0 -12.11 -21.05 -14.42 0 0 -39.77 62.69 99.45z"/>
 </g>
</svg>
