<?xml version="1.0" encoding="UTF-8"?>
<!DOCTYPE svg PUBLIC "-//W3C//DTD SVG 1.1//EN" "http://www.w3.org/Graphics/SVG/1.1/DTD/svg11.dtd">
<!-- Creator: CorelDRAW 2021.5 -->
<svg xmlns="http://www.w3.org/2000/svg" xml:space="preserve" width="45.3663mm" height="16.3948mm" version="1.1" style="shape-rendering:geometricPrecision; text-rendering:geometricPrecision; image-rendering:optimizeQuality; fill-rule:evenodd; clip-rule:evenodd"
viewBox="0 0 487.29 176.1"
 xmlns:xlink="http://www.w3.org/1999/xlink"
 xmlns:xodm="http://www.corel.com/coreldraw/odm/2003">
 <defs>
  <style type="text/css">
   <![CDATA[
    .fil0 {fill:#FEFEFE}
   ]]>
  </style>
 </defs>
 <g id="Layer_x0020_1">
  <metadata id="CorelCorpID_0Corel-Layer"/>
  <path class="fil0" d="M243.63 0c46.57,0 84.32,27.61 84.32,61.66 0,9.19 -2.75,17.9 -7.68,25.74l-40.2 -63.68c-13.43,0.12 -28.19,-0 -41.69,-0l0 37.95 -29.17 0 0 -37.95 -22.35 0 0 37.95 -27.56 0c0,-34.06 37.75,-61.66 84.33,-61.66zm243.65 147.82c-4.06,7.69 -8.15,13.73 -12.25,18.1 -4.1,4.37 -7.73,6.56 -10.9,6.56 -2.29,0 -4.15,-0.89 -5.56,-2.66 -1.42,-1.78 -2.12,-4.09 -2.12,-6.95 0,-1.33 0.2,-3.11 0.6,-5.34 -2.17,3.27 -4.35,6.06 -6.53,8.39 -4.1,4.37 -7.73,6.56 -10.9,6.56 -2.29,0 -4.15,-0.89 -5.56,-2.66 -1.42,-1.78 -2.12,-4.09 -2.12,-6.95 0,-1.61 0.29,-3.88 0.88,-6.82l0.03 -0.13c-2.8,3.58 -5.99,6.74 -9.58,9.48 -6.15,4.72 -12,7.07 -17.51,7.07 -3.54,0 -6.34,-1.14 -8.39,-3.42 -2.05,-2.27 -3.08,-5.39 -3.08,-9.33 0,-5.69 1.86,-10.57 5.58,-14.61 3.72,-4.04 8.21,-6.06 13.45,-6.06 2.53,0 4.57,0.63 6.08,1.91 1.52,1.28 2.28,2.98 2.28,5.12 0,3.51 -2.11,6.62 -6.35,9.32 -4.23,2.7 -9.09,4.06 -14.59,4.06 0,5.74 2.43,8.61 7.3,8.61 4.22,0 8.88,-2.01 13.97,-6.02 4.5,-3.55 8.6,-8.09 12.31,-13.63l4.31 -21.8c-0.76,0.12 -1.43,0.18 -2,0.18 -4.5,0 -6.75,-1.92 -6.75,-5.76l0 -0.69c2.35,1.37 5.02,2.05 7.98,2.05 2.97,0 5.56,-0.74 7.77,-2.23l-6.81 35.45c-0.61,3.19 -0.92,5.38 -0.92,6.58 0,3.32 1.22,4.98 3.65,4.98 2.36,0 4.73,-1.33 7.12,-3.98 2.13,-2.38 5.49,-7.16 10.08,-14.36l4.39 -22.21c-0.76,0.12 -1.43,0.18 -2,0.18 -4.5,0 -6.75,-1.92 -6.75,-5.76l0 -0.69c2.35,1.37 5.02,2.05 7.98,2.05 2.97,0 5.56,-0.74 7.77,-2.23l-6.81 35.45c-0.61,3.19 -0.92,5.38 -0.92,6.58 0,3.32 1.22,4.98 3.65,4.98 2.36,0 4.73,-1.33 7.12,-3.98 2.38,-2.66 6.3,-8.32 11.74,-16.98l2.35 1.61zm-86.31 8.81c4.11,-0.22 7.65,-1.39 10.6,-3.53 2.95,-2.13 4.43,-4.6 4.43,-7.39 0,-2.5 -1.13,-3.76 -3.37,-3.76 -2.69,0 -5.16,1.43 -7.43,4.28 -2.26,2.86 -3.68,6.33 -4.22,10.4zm-31.65 14.9c-1.34,0.63 -2.41,0.95 -3.23,0.95 -2.01,0 -3.02,-0.89 -3.02,-2.66 0,-0.9 0.35,-3.15 1.06,-6.75l1.46 -7.33c0.89,-4.36 1.35,-7.59 1.35,-9.69 0,-1.14 -0.32,-2.09 -0.97,-2.86 2.08,-0.71 3.78,-1.07 5.1,-1.07 1.39,0 2.08,0.87 2.08,2.62 0,1.08 -0.49,3.92 -1.49,8.52l-1.69 8.58c3.7,-7.21 7.43,-12.81 11.19,-16.8 3.75,-3.99 7.16,-5.99 10.22,-5.99 1.08,0 2.01,0.31 2.8,0.92 0.78,0.62 1.18,1.38 1.18,2.25 0,1.38 -1.49,3.21 -4.47,5.48 -0.74,-1.55 -1.8,-2.32 -3.18,-2.32 -2.49,0 -5.67,2.66 -9.53,7.95 -2.39,3.3 -4.47,6.7 -6.24,10.2 -1.76,3.51 -2.65,6 -2.65,7.49l0.03 0.5zm-32.64 0c-1.34,0.63 -2.41,0.95 -3.23,0.95 -2.01,0 -3.02,-0.89 -3.02,-2.66 0,-0.9 0.35,-3.15 1.06,-6.75l1.46 -7.33c0.44,-2.13 0.77,-4 0.99,-5.59 -1.94,0.8 -3.9,1.2 -5.9,1.2 -2.18,0 -4.66,-0.45 -7.43,-1.35 0.06,0.46 0.09,0.9 0.09,1.27 0,5.68 -1.92,10.63 -5.77,14.86 -3.84,4.22 -8.35,6.34 -13.51,6.34 -3.94,0 -7.16,-1.26 -9.65,-3.78 -2.48,-2.52 -3.72,-5.8 -3.72,-9.83 0,-4.57 1.61,-8.54 4.82,-11.89 3.21,-3.36 7,-5.04 11.35,-5.04 0.66,0 1.38,0.09 2.12,0.26 -0.49,-0.89 -0.73,-1.64 -0.73,-2.24 0,-0.96 0.32,-1.86 0.97,-2.73 4.78,0.39 8.76,2.85 11.93,7.37 3.27,2.2 6.67,3.31 10.21,3.31 1.75,0 3.61,-0.45 5.57,-1.34l0.01 -0.53c0,-1.14 -0.32,-2.09 -0.97,-2.86 2.08,-0.71 3.78,-1.07 5.1,-1.07 1.39,0 2.08,0.87 2.08,2.62 0,1.08 -0.49,3.92 -1.49,8.52l-1.69 8.58c3.7,-7.21 7.43,-12.81 11.19,-16.8 3.75,-3.99 7.16,-5.99 10.22,-5.99 1.08,0 2.01,0.31 2.8,0.92 0.78,0.62 1.18,1.38 1.18,2.25 0,1.38 -1.49,3.21 -4.47,5.48 -0.74,-1.55 -1.8,-2.32 -3.18,-2.32 -2.49,0 -5.67,2.66 -9.53,7.95 -2.39,3.3 -4.47,6.7 -6.24,10.2 -1.76,3.51 -2.65,6 -2.65,7.49l0.03 0.5zm-22.78 -24.03c-1.62,-0.48 -3.11,-1.27 -4.48,-2.34 -0.99,-0.21 -1.83,-0.31 -2.49,-0.32 -3.31,0.01 -6.24,1.51 -8.81,4.52 -2.56,3.01 -3.84,6.43 -3.85,10.28 0.01,2.79 0.79,5.09 2.33,6.88 1.55,1.8 3.54,2.69 5.97,2.71 3.3,-0.01 6.14,-1.68 8.52,-5.04 2.37,-3.35 3.56,-7.34 3.57,-11.98 -0.01,-1.62 -0.26,-3.18 -0.76,-4.7zm-63.54 3.19l-3.69 18.53c-0.39,1.8 -0.59,3.09 -0.59,3.85 0,0.41 0.12,0.92 0.35,1.53 -1.97,1 -3.77,1.5 -5.37,1.5 -1.04,0 -1.56,-0.41 -1.56,-1.24 0,-0.41 0.2,-1.63 0.59,-3.64l4.08 -20.53 -0.66 0c-3.69,6.65 -7.03,11.7 -10.02,15.15 -3.42,3.94 -6.5,5.91 -9.21,5.91 -2.49,0 -4.25,-1.21 -5.27,-3.61 -1.02,-2.41 -1.52,-6.59 -1.52,-12.53l0 -2.52c0,-3.22 -0.21,-5.47 -0.62,-6.78 -0.41,-1.3 -1.13,-1.95 -2.15,-1.95 -2.59,0 -6.78,5.16 -12.54,15.49 -1.42,2.53 -2.33,4.15 -2.75,4.88 -1.52,2.63 -2.27,4.54 -2.27,5.7 0,0.47 0.13,0.92 0.38,1.36 -1.14,0.46 -2.1,0.69 -2.9,0.69 -1.98,0 -2.98,-1.1 -2.98,-3.3 0,-0.62 0.26,-3.45 0.77,-8.47l0.65 -6.4 0.15 -1.46c-2.82,4.2 -5.9,7.86 -9.25,10.96 -4.68,4.34 -8.7,6.5 -12.06,6.5 -4.24,0 -6.37,-3.53 -6.37,-10.6 0,-1.47 0.06,-3.46 0.18,-5.95 -2.52,5.21 -5.62,9.63 -9.31,13.27 -3.69,3.64 -6.9,5.46 -9.63,5.46 -2.09,0 -3.75,-0.92 -5.01,-2.79 -1.25,-1.85 -1.87,-4.33 -1.87,-7.4 0,-3.98 0.78,-7.66 2.35,-11.03 -1.64,0.47 -3.36,0.7 -5.14,0.7 -1.94,0 -3.78,-0.25 -5.53,-0.74 0.27,0.97 0.41,1.94 0.41,2.95 0,4.93 -1.73,9.21 -5.19,12.85 -3.45,3.64 -7.52,5.46 -12.2,5.46 -3.41,0 -6.2,-1.02 -8.35,-3.06 -2.15,-2.04 -3.23,-4.68 -3.23,-7.89 0,-2.33 0.43,-5.68 1.29,-10.04l4.93 -24.96c-0.95,0.18 -1.8,0.27 -2.52,0.27 -4.19,0 -6.29,-2.21 -6.29,-6.64 1.28,1.25 3.33,1.87 6.14,1.87 2.46,0 5.74,-0.64 9.85,-1.93l-7.04 34.91c-0.45,2.36 -0.68,4.44 -0.68,6.25 0,2.41 0.64,4.37 1.92,5.88 1.29,1.5 2.95,2.25 5,2.25 3.1,0 5.72,-1.4 7.89,-4.2 2.16,-2.8 3.24,-6.18 3.24,-10.16 0,-1.96 -0.32,-3.88 -0.98,-5.75 -2.48,-0.82 -4.53,-1.89 -6.11,-3.2 -1.59,-1.32 -2.38,-2.62 -2.38,-3.89 0,-0.66 0.27,-1.54 0.82,-2.61 5.32,0.41 9.36,2.7 12.14,6.88 2.55,1.22 5.24,1.82 8.05,1.82 2.2,0 4.41,-0.51 6.66,-1.51 0.18,-0.24 0.36,-0.47 0.55,-0.71 3.73,-4.68 8.05,-7.01 12.94,-7.01 2.98,0 6.19,0.92 9.65,2.76 0.51,-1.82 2.6,-2.73 6.26,-2.73 0.24,0 0.62,0.01 1.16,0.03 -1.13,1.71 -1.98,4.04 -2.56,7.01l-0.5 2.51c-0.57,2.79 -0.85,6.05 -0.85,9.79 0,4.3 1.01,6.46 3.01,6.46 2.12,0 5.02,-1.77 8.7,-5.32 3.45,-3.33 6.85,-7.5 10.19,-12.53 -0.13,-1.61 -0.59,-2.91 -1.39,-3.91 0.41,-0.15 1.11,-0.39 2.06,-0.73 1.23,-0.45 2.19,-0.67 2.92,-0.67 1.54,0 2.3,1.12 2.3,3.36 0,1.18 -0.15,3.2 -0.44,6.06 -0.06,0.63 -0.11,1.23 -0.17,1.8l-0.76 8.22c6.98,-14.73 13.26,-22.09 18.82,-22.09 4.34,0 6.52,4.31 6.52,12.93l0.06 3.56c0,4.11 0.21,6.96 0.63,8.54 0.42,1.58 1.2,2.36 2.31,2.36 1.7,0 3.62,-1.34 5.77,-4.01 1.7,-2.11 4.25,-5.92 7.64,-11.41 -1.88,0.37 -3.8,1.07 -5.76,2.09 0.82,-2.37 1.92,-3.97 3.27,-4.8 1.08,-0.66 2.71,-1.05 4.87,-1.19l0.5 -0.83 1.35 0.78 0.92 0 3.03 -15.29c-1.72,0.25 -3.33,0.38 -4.82,0.38 -3.1,0 -4.93,-2.06 -5.5,-6.18 1.42,1.19 3.32,1.78 5.71,1.78 3.13,0 7.05,-0.3 11.79,-0.92l-4.05 20.22 15.44 0c1.88,-8.41 3.85,-14.65 5.92,-18.74 1.15,-2.22 2.18,-3.63 3.11,-4.22 0.92,-0.58 2.75,-0.98 5.47,-1.18 0.33,-0.04 0.83,-0.08 1.51,-0.12 -4.66,5.36 -7.95,13.45 -9.91,24.26l0.53 0c1.52,0 3.42,-0.69 5.69,-2.09 -0.47,3.81 -2.36,5.71 -5.67,5.71l-1.29 0c-0.59,3.06 -0.89,6.29 -0.89,9.68 0,5.65 1.74,8.48 5.23,8.48 1.44,0 3.04,-0.61 4.79,-1.83 -0.29,3.87 -2.87,5.81 -7.71,5.81 -5.68,0 -8.52,-4.29 -8.52,-12.88 0,-2.9 0.34,-5.98 1.02,-9.26l-15.44 0zm-83.22 -3.98c-4.13,-2.69 -7.56,-4.04 -10.3,-4.04 -2.97,0 -5.53,1.8 -7.69,5.41 -2.16,3.6 -3.25,7.89 -3.25,12.83 0,3.97 1.3,5.95 3.89,5.95 2.82,0 8.2,-6.17 16.14,-18.5 0.09,-0.16 0.5,-0.71 1.21,-1.65zm-116.34 -3.01c-0.8,-0.93 -1.21,-2.02 -1.21,-3.3 0,-3.26 2.76,-6.31 8.31,-9.13 5.53,-2.83 11.47,-4.23 17.79,-4.23 9.76,0 14.63,3.1 14.63,9.3 0,3 -1.05,5.55 -3.15,7.66 -2.1,2.11 -5.76,4.31 -10.99,6.58 4.71,10.73 8.76,16.1 12.16,16.1 1.79,0 3.71,-1.26 5.75,-3.78 0.1,0.49 0.15,0.83 0.15,1.03 0,1.66 -0.98,3.37 -2.93,5.15 -1.94,1.78 -3.82,2.68 -5.63,2.68 -4.61,0 -9.52,-6.29 -14.73,-18.85 -1.05,0.29 -1.99,0.44 -2.84,0.44 -0.41,0 -0.79,-0.08 -1.16,-0.23 0.73,-3.71 2.59,-5.56 5.56,-5.56 0.59,0 1.32,0.12 2.18,0.35 6.47,-2.16 9.7,-5.74 9.7,-10.74 0,-1.84 -0.92,-3.36 -2.76,-4.55 -1.84,-1.19 -4.18,-1.78 -7.03,-1.78 -4.84,0 -9.48,1.2 -13.95,3.6 -4.47,2.4 -7.75,5.49 -9.88,9.26zm10.59 30.89c-2,1 -3.81,1.5 -5.44,1.5 -1.02,0 -1.53,-0.41 -1.53,-1.24 0,-0.43 0.22,-1.66 0.67,-3.68l5.64 -28.53c0.33,-1.65 0.5,-2.84 0.5,-3.57 0,-0.68 -0.23,-1.31 -0.68,-1.88 2.6,-0.99 4.4,-1.47 5.42,-1.47 1.23,0 1.84,0.7 1.84,2.12 0,0.33 -0.32,2.05 -0.96,5.15l-5.18 26.21c-0.37,1.83 -0.55,3.11 -0.55,3.86 0,0.41 0.09,0.92 0.27,1.53zm-31.05 -15.98c-5.91,8.52 -11.72,12.77 -17.41,12.77 -3.09,0 -5.63,-1.13 -7.63,-3.37 -2,-2.25 -3.01,-5.1 -3.01,-8.56 0,-6.93 2.69,-16.12 8.08,-27.59 -1.63,0.31 -3.14,0.47 -4.54,0.47 -1.83,0 -3.17,-0.46 -4.03,-1.38 -0.86,-0.92 -1.47,-2.5 -1.8,-4.78 1.47,1.17 3.38,1.75 5.71,1.75 1.34,0 5.79,-0.34 13.38,-1.04 -6.93,13.54 -10.4,23.88 -10.4,31 0,2.55 0.63,4.65 1.9,6.28 1.27,1.63 2.89,2.44 4.88,2.44 2.79,0 5.55,-1.37 8.29,-4.1 2.74,-2.74 5.31,-6.71 7.73,-11.91 1.72,-9.55 3.26,-15.43 4.61,-17.63 1.35,-2.19 4.06,-3.3 8.15,-3.3 -1.79,2.3 -3.55,7.1 -5.3,14.39 -1.74,7.29 -2.61,13.52 -2.61,18.69 0,4.06 1.24,6.09 3.7,6.09 1.55,0 3.38,-0.84 5.47,-2.52 0.08,0.47 0.12,0.82 0.12,1.07 0,1.34 -0.8,2.58 -2.41,3.72 -1.61,1.15 -3.36,1.72 -5.24,1.72 -5.28,0 -7.92,-3.36 -7.92,-10.09 0,-0.95 0.1,-2.32 0.29,-4.13zm274.75 -54.74c-15.38,11.97 -37.22,19.44 -61.45,19.44 -39.55,0 -72.74,-19.91 -81.85,-46.78l25.08 0 0 29.03 22.35 0 0 -29.03 29.17 0 0 29.03 22.35 0 0 -29.03 18.76 0 -8.56 -14.89 -10.2 0 0 -28.13 44.34 70.35z"/>
 </g>
</svg>
